<?xml version="1.0" encoding="UTF-8" standalone="no"?>
<!-- Created with Inkscape (http://www.inkscape.org/) -->

<svg
   xmlns:dc="http://purl.org/dc/elements/1.1/"
   xmlns:cc="http://creativecommons.org/ns#"
   xmlns:rdf="http://www.w3.org/1999/02/22-rdf-syntax-ns#"
   xmlns:svg="http://www.w3.org/2000/svg"
   xmlns="http://www.w3.org/2000/svg"
   xmlns:sodipodi="http://sodipodi.sourceforge.net/DTD/sodipodi-0.dtd"
   xmlns:inkscape="http://www.inkscape.org/namespaces/inkscape"
   width="300"
   height="300"
   viewBox="0 0 300 300.00001"
   version="1.1"
   id="svg1942"
   inkscape:version="0.92.5 (2060ec1f9f, 2020-04-08)"
   sodipodi:docname="logo.svg">
  <defs
     id="defs1936" />
  <sodipodi:namedview
     id="base"
     pagecolor="#a9a9a9"
     bordercolor="#666666"
     borderopacity="1.0"
     inkscape:pageopacity="0"
     inkscape:pageshadow="2"
     inkscape:zoom="1.63"
     inkscape:cx="123.79032"
     inkscape:cy="102.05423"
     inkscape:document-units="px"
     inkscape:current-layer="layer1"
     showgrid="false"
     units="px"
     inkscape:window-width="1920"
     inkscape:window-height="1022"
     inkscape:window-x="0"
     inkscape:window-y="30"
     inkscape:window-maximized="1" />
  <metadata
     id="metadata1939">
    <rdf:RDF>
      <cc:Work
         rdf:about="">
        <dc:format>image/svg+xml</dc:format>
        <dc:type
           rdf:resource="http://purl.org/dc/dcmitype/StillImage" />
        <dc:title></dc:title>
      </cc:Work>
    </rdf:RDF>
  </metadata>
  <g
     inkscape:label="Layer 1"
     inkscape:groupmode="layer"
     id="layer1"
     transform="translate(0,-822.51966)">
    <path
       inkscape:connector-curvature="0"
       id="path1969"
       style="opacity:1;fill:#ffffff;fill-opacity:1;fill-rule:nonzero;stroke:none;stroke-width:5.17405701"
       d="m 111.84363,1005.4532 c 0,0 17.53644,-9.89042 17.53644,-9.89042 0,0 11.80961,6.62882 11.80961,6.62882 0,0 0.78818,20.2206 0.78818,20.2206 0,0 -0.0488,2.6654 -0.0488,2.6654 0,0 -32.54621,-18.2655 -32.54621,-18.2655 0,0 2.41903,-1.3529 2.41903,-1.3529 z m -10.022,-50.33429 c 0,0 17.12143,9.79914 17.12143,9.79914 0,0 0.0653,17.23342 0.0653,17.23342 0,0 -17.14511,10.56104 -17.14511,10.56104 0,0 -2.291636,1.33508 -2.291636,1.33508 0,0 -0.0396,-40.23745 -0.0396,-40.23745 0,0 2.319376,1.32143 2.319376,1.32143 z m 67.11109,39.85201 c 0,0 18.33121,8.82778 18.33121,8.82778 0,0 2.43043,1.3363 2.43043,1.3363 0,0 -31.60653,18.8188 -31.60653,18.8188 0,0 -0.0394,-21.5561 -0.0394,-21.5561 0.74814,-1.39 3.25105,-2.84956 3.25105,-2.84956 0,0 0.0124,0.004 0.0124,0.004 0,0 0,0 0,0 0,0 7.62618,-4.52593 7.62618,-4.52593 z m -26.35897,-38.11969 c 0,0 6.5356,-3.87931 6.5356,-3.87931 0,0 1.63207,0.91492 1.63207,0.91492 0,0 14.15107,7.94183 14.15107,7.94183 0.69909,1.25924 0.63637,9.12637 0.63637,9.12637 0,0 -0.0435,9.28305 -0.0435,9.28305 -0.75017,1.22761 -9.56864,6.45816 -9.56864,6.45816 0,0 -5.91821,3.52275 -5.91821,3.52275 -1.59302,0.0618 -16.3166,-8.22832 -16.3166,-8.22832 -0.87217,-1.45218 -0.80554,-9.03259 -0.80554,-9.03259 0,0 0.0417,-9.41302 0.0417,-9.41302 0.74982,-1.22779 9.69702,-6.60591 9.69702,-6.60591 z m -33.26418,-18.78269 c 0,0 32.58714,-19.34454 32.58714,-19.34454 0,0 0.0396,21.55784 0.0396,21.55784 -0.7477,1.39026 -14.85894,9.71914 -14.85894,9.71914 0,0 -17.75188,-9.27499 -17.75188,-9.27499 0,0 -2.29385,-1.32169 -2.29385,-1.32169 0,0 2.29954,-1.37573 2.29954,-1.37573 z m 87.21951,16.17528 c 0,0 2.31672,-1.36786 2.31672,-1.36786 0,0 0.0192,38.7687 0.0192,38.7687 0,0 -18.6223,-9.7952 -18.6223,-9.7952 -0.8699,-1.28161 -0.82313,-16.54452 -0.82313,-16.54452 0,0 17.11626,-11.06202 17.11626,-11.06202 z M 160.2729,920.67931 c 0,0 31.63101,17.72206 31.63101,17.72206 0,0 -18.66175,11.11024 -18.66175,11.11024 -1.5777,-0.0626 -6.80799,-2.95037 -6.80799,-2.95037 0,0 -7.6447,-4.28072 -7.6447,-4.28072 0,0 -0.78797,-20.20672 -0.78797,-20.20672 0,0 0.0487,-2.66557 0.0487,-2.66557 0,0 2.30245,1.32163 2.30245,1.32163 z m 116.64044,113.79049 c -0.99411,-0.3945 -14.07672,-7.8614 -14.07672,-7.8614 0,0 8.75152,-4.9455 11.82787,-6.6716 -3.4963,-1.9901 -14.21637,-7.9801 -14.21637,-7.9801 0,0 -10.67101,6.5036 -10.67101,6.5036 0,0 -7.53019,-3.4049 -7.53019,-3.4049 0,0 -2.40504,-1.3364 -2.40504,-1.3364 0,0 16.78266,-9.4665 20.53622,-11.5963 -3.49628,-1.9901 -14.23643,-7.96722 -14.23643,-7.96722 0,0 -19.392,11.37392 -19.392,11.37392 0,0 -12.76575,-5.92689 -12.76575,-5.92689 0,0 -0.88448,-21.02622 -0.88448,-21.02622 0,0 0.0649,-1.4876 0.0649,-1.4876 0,0 6.96342,-0.0179 6.96342,-0.0179 0,0 9.02714,13.44576 9.02714,13.44576 0,0 5.11844,-0.30402 8.14157,-0.50212 -1.76293,-3.00977 -7.60095,-12.92962 -7.60095,-12.92962 0,0 7.17673,-0.003 7.17673,-0.003 0,0 5.82907,8.0236 5.82907,8.0236 0,0 5.11956,-0.22281 8.14155,-0.50214 -1.25689,-2.15452 -4.37297,-7.50454 -4.37297,-7.50454 0,0 11.6329,-0.0557 11.6329,-0.0557 0,0 2.66922,-3.01323 3.99593,-4.47507 -1.38242,-1.36496 -4.94483,-5.06847 -4.94483,-5.06847 0,0 -7.81881,0.41711 -7.81881,0.41711 0,0 -2.71227,-0.13057 -2.71227,-0.13057 0,0 3.17709,-5.14787 4.5198,-7.30053 -3.29742,0.0819 -9.33445,0.0288 -9.33445,0.0288 0,0 -3.44683,6.60541 -3.44683,6.60541 0,0 -5.77761,0.71806 -5.77761,0.71806 0,0 -2.71225,-0.13055 -2.71225,-0.13055 0,0 5.93826,-9.52963 7.8728,-12.6634 -3.26484,-0.0268 -9.33365,0.0288 -9.33365,0.0288 0,0 -6.78251,11.98595 -6.78251,11.98595 0,0 -6.91105,0.73143 -6.91105,0.73143 0,0 -1.5777,-0.0627 -1.5777,-0.0627 0,0 -0.0539,-22.61951 -0.0539,-22.61951 0,0 12.086,-8.11278 12.086,-8.11278 0,0 22.40109,10.62658 22.40109,10.62658 0,0 9.54578,-6.19789 12.82459,-8.32785 -3.63288,-2.00463 -20.68374,-10.94902 -20.68374,-10.94902 0,0 8.48408,-5.05606 8.48408,-5.05606 0,0 13.59669,6.04716 13.59669,6.04716 0,0 9.5629,-6.19809 12.84172,-8.32561 -2.98793,-1.58973 -11.90395,-6.35956 -11.90395,-6.35956 0,0 14.60744,-8.6584 14.60744,-8.6584 0,0 1.82029,-8.36477 2.35944,-10.69886 -2.27578,-0.62316 -11.66743,-2.96622 -11.66743,-2.96622 0,0 -11.05487,7.04435 -11.05487,7.04435 0,0 -2.35045,1.39266 -2.35045,1.39266 0,0 0.28988,-9.95786 0.32738,-13.44545 -3.48332,2.07219 -14.25906,8.45849 -14.25906,8.45849 0,0 0.18191,12.35074 0.18191,12.35074 0,0 -6.81979,4.90643 -6.81979,4.90643 0,0 -2.36749,1.39286 -2.36749,1.39286 0,0 0.41996,-19.13147 0.53198,-23.40153 -3.48329,2.0722 -14.23406,8.41186 -14.23406,8.41186 0,0 -0.12038,22.33965 -0.12038,22.33965 0,0 -11.01864,7.38523 -11.01864,7.38523 0,0 -18.82921,-9.6563 -18.82921,-9.6563 0,0 -1.45269,-0.89284 -1.45269,-0.89284 0,0 3.53499,-5.76961 3.53499,-5.76961 0,0 16.25241,-1.00393 16.25241,-1.00393 0,0 2.48534,-4.61974 3.85472,-7.31708 -3.47693,0.0467 -15.01386,0.0144 -15.01386,0.0144 0,0 3.81089,-6.15478 3.81089,-6.15478 0,0 9.92349,-0.96186 9.92349,-0.96186 0,0 2.47702,-4.60342 3.86346,-7.30092 -2.49809,-0.0518 -8.72116,-0.0597 -8.72116,-0.0597 0,0 6.17105,-9.96294 6.17105,-9.96294 0,0 -1.17769,-3.83729 -1.70589,-5.6916 -1.95232,0.59171 -6.9235,1.69023 -6.9235,1.69023 0,0 -3.75743,6.95035 -3.75743,6.95035 0,0 -1.42534,2.35668 -1.42534,2.35668 0,0 -2.68976,-5.33073 -3.85377,-7.5513 -1.67485,2.79842 -4.97017,8.02081 -4.97017,8.02081 0,0 3.82757,6.26784 3.82757,6.26784 0,0 -2.40764,5.30946 -2.40764,5.30946 0,0 -1.42498,2.37302 -1.42498,2.37302 0,0 -5.02855,-9.94155 -6.6836,-13.16467 -1.67502,2.82257 -4.94488,8.00427 -4.94488,8.00427 0,0 6.61489,11.87769 6.61489,11.87769 0,0 -3.00777,6.29963 -3.00777,6.29963 0,0 -0.75039,1.21945 -0.75039,1.21945 0,0 -20.13129,-11.25363 -20.13129,-11.25363 0,0 -0.77711,-13.17985 -0.77711,-13.17985 0,0 20.70334,-14.20871 20.70334,-14.20871 0,0 -0.41033,-11.29349 -0.63386,-15.16881 -3.53278,2.19465 -20.14092,12.58038 -20.14092,12.58038 0,0 0.1218,-9.77073 0.1218,-9.77073 0,0 12.21827,-8.86252 12.21827,-8.86252 0,0 -0.49578,-11.30955 -0.63402,-15.17131 -2.89027,1.79722 -11.59656,7.23781 -11.59656,7.23781 0,0 -0.0605,-16.87692 -0.0605,-16.87692 0,0 -6.25765,-5.71108 -8.00107,-7.29118 -1.67321,1.67718 -8.52699,8.6509 -8.52699,8.6509 0,0 0.43411,13.02068 0.43411,13.02068 0,0 -0.048,2.73036 -0.048,2.73036 0,0 -8.51571,-5.03456 -11.50242,-6.78679 0.0774,4.02901 0.054,16.41294 0.054,16.41294 0,0 10.79437,5.86898 10.79437,5.86898 0,0 0.7107,8.32527 0.7107,8.32527 0,0 -0.0477,2.74671 -0.0477,2.74671 0,0 -16.36559,-9.69269 -20.02805,-11.85389 0.0774,4.02914 0.0546,16.42856 0.0546,16.42856 0,0 19.28975,10.91922 19.28975,10.91922 0,0 0.76374,12.21219 0.76374,12.21219 0,0 -20.18547,12.94008 -20.18547,12.94008 0,0 -1.3608,0.82853 -1.3608,0.82853 0,0 -2.81335,-5.0124 -2.81335,-5.0124 0,0 7.22204,-14.7471 7.22204,-14.7471 0,0 -2.76934,-4.30597 -4.38907,-6.81372 -1.7059,3.05042 -7.46508,13.20206 -7.46508,13.20206 0,0 -3.47761,-6.23945 -3.47761,-6.23945 0,0 4.11908,-9.1703 4.11908,-9.1703 0,0 -2.77778,-4.30587 -4.40662,-6.85407 -1.22326,2.19974 -4.32736,7.66383 -4.32736,7.66383 0,0 -5.618836,-10.10834 -5.618836,-10.10834 0,0 -3.880888,-0.82362 -5.836774,-1.10134 -0.484414,1.9557 -1.959412,6.91296 -1.959412,6.91296 0,0 4.181481,6.58055 4.181481,6.58055 0,0 1.225983,2.38243 1.225983,2.38243 0,0 -5.985997,-0.17331 -8.509774,-0.22491 1.590441,2.8575 4.509583,8.13992 4.509583,8.13992 0,0 7.343929,-0.2489 7.343929,-0.2489 0,0 3.37924,4.64812 3.37924,4.64812 0,0 1.40478,2.38028 1.40478,2.38028 0,0 -11.133653,-0.27515 -14.755043,-0.39489 1.590249,2.85745 4.526312,8.14124 4.526312,8.14124 0,0 13.640841,-0.20367 13.640841,-0.20367 0,0 3.40442,4.61545 3.40442,4.61545 0,0 0.69935,1.27543 0.69935,1.27543 0,0 -18.815899,11.18844 -18.815899,11.18844 0,0 -10.927751,-5.35549 -10.927751,-5.35549 0,0 -1.661847,-24.86753 -1.661847,-24.86753 0,0 -10.029986,-5.09762 -13.440995,-6.82078 0.07209,4.12673 0.57794,23.54603 0.57794,23.54603 0,0 -8.4776,-4.75868 -8.4776,-4.75868 0,0 -1.405451,-14.88177 -1.405451,-14.88177 0,0 -10.028109,-5.11422 -13.469223,-6.86112 6.32e-4,3.38799 0.271554,13.59675 0.271554,13.59675 0,0 -14.576186,-8.17567 -14.576186,-8.17567 0,0 -8.180322,2.63929 -10.471716,3.3732 0.542706,2.26856 3.141813,11.58954 3.141813,11.58954 0,0 11.492463,5.93381 11.492463,5.93381 0,0 2.396469,1.33698 2.396469,1.33698 0,0 -8.731318,4.93714 -11.78742,6.64673 3.513418,1.99 14.219662,7.96537 14.219662,7.96537 0,0 10.614388,-6.4786 10.614388,-6.4786 0,0 7.572811,3.41255 7.572811,3.41255 0,0 2.396271,1.33691 2.396271,1.33691 0,0 -16.76477,9.46786 -20.542298,11.59397 3.513604,1.98977 14.219567,7.96444 14.219567,7.96444 0,0 19.391293,-11.37388 19.391293,-11.37388 0,0 11.247972,5.57118 11.247972,5.57118 0,0 0.812207,21.98969 0.812207,21.98969 0,0 -0.06316,1.64207 -0.06316,1.64207 0,0 -6.547161,-0.0855 -6.547161,-0.0855 0,0 -8.788965,-13.6117 -8.788965,-13.6117 0,0 -5.136623,0.22304 -8.143895,0.33958 1.728939,3.0182 7.380011,12.99802 7.380011,12.99802 0,0 -7.170404,-0.15945 -7.170404,-0.15945 0,0 -5.642504,-8.10045 -5.642504,-8.10045 0,0 -5.153651,0.22312 -8.186306,0.34018 1.248666,2.18712 4.237525,7.57118 4.237525,7.57118 0,0 -11.563936,-0.2701 -11.563936,-0.2701 0,0 -2.754909,2.98175 -4.090688,4.41121 1.359125,1.51964 4.895199,5.19092 4.895199,5.19092 0,0 7.801985,-0.41691 7.801985,-0.41691 0,0 2.729171,0.13036 2.729171,0.13036 0,0 -3.254916,5.10774 -4.630303,7.25368 3.25757,0.124 9.307679,0.13409 9.307679,0.13409 0,0 3.550565,-6.50913 3.550565,-6.50913 0,0 5.760687,-0.71786 5.760687,-0.71786 0,0 2.720573,0.13052 2.720573,0.13052 0,0 -6.092122,9.47386 -8.087142,12.56527 3.275862,0.20502 9.344456,0.13364 9.344456,0.13364 0,0 6.971667,-11.85823 6.971667,-11.85823 0,0 6.6917,-0.56632 6.6917,-0.56632 0,0 1.577665,0.0624 1.577665,0.0624 0,0 -0.02303,23.21755 -0.02303,23.21755 0,0 -10.545442,6.8353 -10.545442,6.8353 0,0 -22.325564,-10.66076 -22.325564,-10.66076 0,0 -9.564376,6.21436 -12.84731,8.35826 3.632961,2.0045 20.681398,10.9489 20.681398,10.9489 0,0 -8.483069,5.0399 -8.483069,5.0399 0,0 -13.578498,-6.0392 -13.578498,-6.0392 0,0 -9.565212,6.2143 -12.864305,8.3549 2.987929,1.5819 11.926563,6.3269 11.926563,6.3269 0,0 -14.610513,8.6739 -14.610513,8.6739 0,0 -1.820676,8.3493 -2.351317,10.6826 2.258898,0.6231 11.649449,2.9582 11.649449,2.9582 0,0 11.07512,-7.0608 11.07512,-7.0608 0,0 2.333376,-1.3925 2.333376,-1.3925 0,0 -0.118916,9.9981 -0.327008,13.4642 3.500448,-2.0643 14.276207,-8.4554 14.276207,-8.4554 0,0 -0.178195,-12.3833 -0.178195,-12.3833 0,0 6.845953,-4.8661 6.845953,-4.8661 0,0 2.350492,-1.3928 2.350492,-1.3928 0,0 -0.419841,19.1316 -0.531744,23.4138 3.466028,-2.0884 14.223894,-8.4629 14.223894,-8.4629 0,0 0.03524,-22.3256 0.03524,-22.3256 0,0 11.965801,-7.5671 11.965801,-7.5671 0,0 19.089359,9.8613 19.089359,9.8613 0,0 1.30549,0.7158 1.30549,0.7158 0,0 -4.17462,7.6052 -4.17462,7.6052 0,0 -16.204569,1.7021 -16.204569,1.7021 0,0 -2.313594,4.7153 -3.529042,7.4432 3.491842,-0.2037 15.004101,-0.6642 15.004101,-0.6642 0,0 -3.51092,6.2812 -3.51092,6.2812 0,0 -9.900476,1.4003 -9.900476,1.4003 0,0 -2.142674,4.7457 -3.520137,7.4756 2.49603,-0.094 8.692239,-0.4273 8.692239,-0.4273 0,0 -5.673089,10.2147 -5.673089,10.2147 0,0 1.2877,3.7872 1.943699,5.6237 1.926623,-0.5914 6.867954,-2.0064 6.867954,-2.0064 0,0 3.41473,-7.0762 3.41473,-7.0762 0,0 1.25435,-2.4035 1.25435,-2.4035 0,0 2.96867,5.173 4.22589,7.3601 1.68248,-2.8717 4.55001,-8.2135 4.55001,-8.2135 0,0 -4.05557,-6.1189 -4.05557,-6.1189 0,0 2.24448,-5.3806 2.24448,-5.3806 0,0 1.43304,-2.4219 1.43304,-2.4219 0,0 5.46023,9.7236 7.24241,12.8947 1.68208,-2.8878 4.61674,-8.3025 4.61674,-8.3025 0,0 -7.16382,-11.5228 -7.16382,-11.5228 0,0 3.46566,-7.7022 3.46566,-7.7022 0,0 0.74829,-1.3901 0.74829,-1.3901 0,0 18.9752,10.6109 18.9752,10.6109 0,0 0.78612,13.8459 0.78612,13.8459 0,0 -20.7302,14.2358 -20.7302,14.2358 0,0 0.49577,11.3121 0.63407,15.1891 3.50694,-2.2104 20.08503,-12.622 20.08503,-12.622 0,0 0.0663,9.8107 0.0663,9.8107 0,0 -12.21808,8.8626 -12.21808,8.8626 0,0 0.49571,11.3104 0.63376,15.173 2.89047,-1.7972 11.62791,-7.2136 11.62791,-7.2136 0,0 -0.0252,16.838 -0.0252,16.838 0,0 6.27516,5.7352 8.00977,7.3073 1.67354,-1.6771 8.54889,-8.6806 8.54889,-8.6806 0,0 -0.43388,-13.0033 -0.43388,-13.0033 0,0 0.0479,-2.7469 0.0479,-2.7469 0,0 8.51581,5.0509 11.49985,6.8033 -0.078,-4.0291 -0.0542,-16.4303 -0.0542,-16.4303 0,0 -10.81639,-5.8523 -10.81639,-5.8523 0,0 -0.71074,-8.339 -0.71074,-8.339 0,0 0.0478,-2.7468 0.0478,-2.7468 0,0 16.36645,9.6927 20.01678,11.8531 0.11557,-4.0069 -0.0539,-16.3977 -0.0539,-16.3977 0,0 -19.27208,-10.9331 -19.27208,-10.9331 0,0 -0.79821,-14.7248 -0.79821,-14.7248 0,0 18.92872,-12.1533 18.92872,-12.1533 0,0 1.36095,-0.8285 1.36095,-0.8285 0,0 3.84563,6.3407 3.84563,6.3407 0,0 -6.63028,15.0131 -6.63028,15.0131 0,0 2.98094,4.1897 4.68502,6.6396 1.54242,-3.1381 6.92344,-13.5256 6.92344,-13.5256 0,0 3.70613,6.115 3.70613,6.115 0,0 -3.75887,9.3381 -3.75887,9.3381 0,0 2.98094,4.1898 4.70215,6.6394 1.22251,-2.2242 4.03508,-7.8392 4.03508,-7.8392 0,0 6.04226,9.9021 6.04226,9.9021 0,0 3.91205,0.6039 5.82632,0.9712 0.48461,-1.9556 1.77977,-6.9676 1.77977,-6.9676 0,0 -4.41752,-6.399 -4.41752,-6.399 0,0 -1.4126,-2.3233 -1.4126,-2.3233 0,0 5.9814,-0.1517 8.50473,-0.1213 -1.69187,-2.7993 -4.85632,-7.9457 -4.85632,-7.9457 0,0 -7.33823,0.6553 -7.33823,0.6553 0,0 -3.60714,-4.483 -3.60714,-4.483 0,0 -1.4467,-2.3229 -1.4467,-2.3229 0,0 11.19884,-0.1962 14.8301,-0.239 -1.69165,-2.7831 -4.85632,-7.9456 -4.85632,-7.9456 0,0 -13.62074,0.7292 -13.62074,0.7292 0,0 -4.25245,-5.5479 -4.25245,-5.5479 0,0 -0.86988,-1.2816 -0.86988,-1.2816 0,0 17.58431,-10.4322 17.58431,-10.4322 0,0 13.47517,6.2599 13.47517,6.2599 0,0 1.71277,24.8741 1.71277,24.8741 0,0 10.02797,5.1142 13.45358,6.8613 -0.0717,-4.1265 -0.578,-23.5453 -0.578,-23.5453 0,0 8.47737,4.7345 8.47737,4.7345 0,0 1.39718,14.8966 1.39718,14.8966 0,0 10.06302,5.122 13.50718,6.8525 -0.0241,-3.3714 -0.35597,-13.5527 -0.35597,-13.5527 0,0 14.59562,8.1624 14.59562,8.1624 0,0 8.19787,-2.6152 10.46777,-3.3569 -0.54096,-2.1548 -2.71952,-10.0005 -2.9889,-11.0007 z" />
  </g>
</svg>
