<?xml version="1.0" encoding="UTF-8" standalone="no"?>
<svg
   xmlns:osb="http://www.openswatchbook.org/uri/2009/osb"
   xmlns:dc="http://purl.org/dc/elements/1.1/"
   xmlns:cc="http://creativecommons.org/ns#"
   xmlns:rdf="http://www.w3.org/1999/02/22-rdf-syntax-ns#"
   xmlns:svg="http://www.w3.org/2000/svg"
   xmlns="http://www.w3.org/2000/svg"
   xmlns:sodipodi="http://sodipodi.sourceforge.net/DTD/sodipodi-0.dtd"
   xmlns:inkscape="http://www.inkscape.org/namespaces/inkscape"
   id="svg315"
   width="117"
   height="65"
   version="1"
   sodipodi:docname="button.svg"
   inkscape:version="0.92.5 (2060ec1f9f, 2020-04-08)">
  <metadata
     id="metadata153">
    <rdf:RDF>
      <cc:Work
         rdf:about="">
        <dc:format>image/svg+xml</dc:format>
        <dc:type
           rdf:resource="http://purl.org/dc/dcmitype/StillImage" />
        <dc:title></dc:title>
      </cc:Work>
    </rdf:RDF>
  </metadata>
  <sodipodi:namedview
     pagecolor="#868686"
     bordercolor="#666666"
     borderopacity="1"
     objecttolerance="10"
     gridtolerance="10"
     guidetolerance="10"
     inkscape:pageopacity="0"
     inkscape:pageshadow="2"
     inkscape:window-width="1920"
     inkscape:window-height="1022"
     id="namedview151"
     showgrid="false"
     inkscape:zoom="11.800226"
     inkscape:cx="78.120175"
     inkscape:cy="14.516699"
     inkscape:window-x="0"
     inkscape:window-y="0"
     inkscape:window-maximized="1"
     inkscape:current-layer="svg315" />
  <defs
     id="defs5">
    <linearGradient
       id="linearGradient6476"
       osb:paint="solid">
      <stop
         id="stop7"
         style="stop-color:#ffffff;stop-opacity:1"
         offset="0" />
    </linearGradient>
    <linearGradient
       id="linearGradient6476-4"
       osb:paint="solid">
      <stop
         id="stop6478-8"
         style="stop-color:#ffffff;stop-opacity:1"
         offset="0" />
    </linearGradient>
  </defs>
  <g
     id="toolbutton-hover-top"
     transform="translate(-24,-42.000002)">
    <path
       id="path76"
       style="opacity:0.00100002"
       d="M 35,44.000002 H 46 V 55 H 35 Z" />
    <path
       id="toolbutton-hover-top2"
       style="opacity:0.12;fill:#ffffff"
       d="M 34.999994,45.00001 H 45.999988 V 55.000012 H 34.999994 Z" />
  </g>
  <g
     id="toolbutton-hover-left"
     transform="translate(-24,-42.000002)">
    <path
       id="path80"
       style="opacity:0.00100002"
       d="M 24,55 H 35 V 66 H 24 Z" />
    <path
       id="toolbutton-hover-left2"
       style="opacity:0.12;fill:#ffffff"
       d="m 24.999544,55.000012 h 10.00045 v 10.999994 h -10.00045 z" />
  </g>
  <rect
     id="toolbutton-hover-center"
     style="opacity:0.12;fill:#ffffff"
     width="11"
     height="11"
     x="11"
     y="13" />
  <g
     id="toolbutton-hover-right"
     transform="translate(-24,-42.000002)">
    <path
       id="path85"
       style="opacity:0.00100002"
       d="M 46,55 H 57 V 66 H 46 Z" />
    <path
       id="toolbutton-hover-right2"
       style="opacity:0.12;fill:#ffffff"
       d="m 45.999988,55.000016 10.000449,5e-6 v 10.999988 l -10.000449,-3e-6 z" />
  </g>
  <g
     id="toolbutton-hover-bottom"
     transform="translate(-24,-42.000002)">
    <path
       id="path89"
       style="opacity:0.00100002"
       d="M 35,66 H 46 V 77.000002 H 35 Z" />
    <path
       id="toolbutton-hover-bottom2"
       style="opacity:0.12;fill:#ffffff"
       d="M 34.999994,76 H 45.999988 V 66.000006 H 34.999994 Z" />
  </g>
  <g
     id="toolbutton-hover-topleft"
     transform="translate(-24,-42.000002)">
    <path
       id="path93"
       style="opacity:0.00100002"
       d="M 24,44.000002 H 35 V 55 H 24 Z" />
    <path
       id="toolbutton-hover-topleft2"
       style="opacity:0.12;fill:#ffffff"
       transform="translate(1,43.000002)"
       d="M 34,2 C 24,2 24,5 24,12 h 10 z" />
  </g>
  <g
     id="toolbutton-hover-topright"
     transform="translate(-24,-42.000002)">
    <path
       id="path97"
       style="opacity:0.00100002"
       d="M 46,44.000002 H 57 V 55 H 46 Z" />
    <path
       id="toolbutton-hover-topright2"
       style="opacity:0.12;fill:#ffffff"
       transform="translate(1,43.000002)"
       d="M 45,2 V 12 H 55 C 55,5 55,2 45,2 Z" />
  </g>
  <g
     id="toolbutton-hover-bottomleft"
     transform="translate(-24,-42.000002)">
    <path
       id="path101"
       style="opacity:0.00100002"
       d="M 24,66 H 35 V 77.000002 H 24 Z" />
    <path
       id="toolbutton-hover-bottomleft2"
       style="opacity:0.12;fill:#ffffff"
       transform="translate(1,43.000002)"
       d="m 24,23 c 0,10 3,10 10,10 V 23 Z" />
  </g>
  <g
     id="toolbutton-hover-bottomright"
     transform="translate(-24,-42.000002)">
    <path
       id="path105"
       style="opacity:0.00100002"
       d="M 46,66 H 57 V 77.000002 H 46 Z" />
    <path
       id="toolbutton-hover-bottomright2"
       style="opacity:0.12;fill:#ffffff"
       transform="translate(1,43.000002)"
       d="m 45,23 v 10 c 7,0 10,0 10,-10 z" />
  </g>
  <g
     id="toolbutton-pressed-top"
     transform="translate(16,-42)">
    <path
       id="rect1034-3"
       style="opacity:0.00100002"
       d="M 35,44 H 46 V 55 H 35 Z" />
    <path
       id="toolbutton-pressed-top2"
       style="opacity:0.24;fill:#ffffff"
       d="M 34.999994,45.000008 H 45.999988 V 55.000012 H 34.999994 Z" />
  </g>
  <g
     id="toolbutton-pressed-left"
     transform="translate(16,-42)">
    <path
       id="rect1019-6"
       style="opacity:0.00100002"
       d="M 24,55 H 35 V 66 H 24 Z" />
    <path
       id="toolbutton-pressed-left2"
       style="opacity:0.24;fill:#ffffff"
       d="m 24.999544,55.000012 h 10.00045 v 10.999994 h -10.00045 z" />
  </g>
  <rect
     id="toolbutton-pressed-center"
     style="opacity:0.24;fill:#ffffff"
     width="11"
     height="11"
     x="51"
     y="13" />
  <g
     id="toolbutton-pressed-right"
     transform="translate(16,-42)">
    <path
       id="rect1029-7"
       style="opacity:0.00100002"
       d="M 46,55 H 57 V 66 H 46 Z" />
    <path
       id="toolbutton-pressed-right2"
       style="opacity:0.24;fill:#ffffff"
       d="m 45.999988,55.000016 10.000449,5e-6 v 10.999988 l -10.000449,-3e-6 z" />
  </g>
  <g
     id="toolbutton-pressed-bottom"
     transform="translate(16,-42)">
    <path
       id="rect1025-5"
       style="opacity:0.00100002"
       d="M 35,66 H 46 V 77 H 35 Z" />
    <path
       id="toolbutton-pressed-bottom2"
       style="opacity:0.24;fill:#ffffff"
       d="M 34.999994,75.999999 H 45.999988 V 66.000006 H 34.999994 Z" />
  </g>
  <g
     id="toolbutton-pressed-topleft"
     transform="translate(16,-42)">
    <path
       id="rect1017-3"
       style="opacity:0.00100002"
       d="M 24,44 H 35 V 55 H 24 Z" />
    <path
       id="toolbutton-pressed-topleft2"
       style="opacity:0.24;fill:#ffffff"
       transform="translate(1,1)"
       d="M 34,44 C 27,44 24,44 24,54 H 34 Z" />
  </g>
  <g
     id="toolbutton-pressed-topright"
     transform="translate(16,-42)">
    <path
       id="rect1032-5"
       style="opacity:0.00100002"
       d="M 46,44 H 57 V 55 H 46 Z" />
    <path
       id="toolbutton-pressed-topright2"
       style="opacity:0.24;fill:#ffffff"
       transform="translate(1,1)"
       d="M 45,44 V 54 H 55 C 55,44 52,44 45,44 Z" />
  </g>
  <g
     id="toolbutton-pressed-bottomleft"
     transform="translate(16,-42)">
    <path
       id="rect1021-6"
       style="opacity:0.00100002"
       d="M 24,66 H 35 V 77 H 24 Z" />
    <path
       id="toolbutton-pressed-bottomleft2"
       style="opacity:0.24;fill:#ffffff"
       transform="translate(1,1)"
       d="m 24,65 c 0,10 3,10 10,10 V 65 Z" />
  </g>
  <g
     id="toolbutton-pressed-bottomright"
     transform="translate(16,-42)">
    <path
       id="rect1027-2"
       style="opacity:0.00100002"
       d="M 46,66 H 57 V 77 H 46 Z" />
    <path
       id="toolbutton-pressed-bottomright2"
       style="opacity:0.24;fill:#ffffff"
       transform="translate(1,1)"
       d="m 45,65 v 10 c 7,0 10,0 10,-10 z" />
  </g>
  <rect
     id="toolbutton-pressed-hint-left-margin"
     style="opacity:1;fill:#ff0000;stroke-width:0.6123724"
     width="1"
     height="3"
     x="-19"
     y="40"
     transform="rotate(-90)" />
  <rect
     id="toolbutton-pressed-hint-top-margin"
     style="opacity:1;fill:#ff0000;stroke-width:0.6123724"
     width="1"
     height="3"
     x="56"
     y="2" />
  <rect
     id="toolbutton-pressed-hint-right-margin"
     style="opacity:1;fill:#ff0000;stroke-width:0.6123724"
     width="1"
     height="3"
     x="-19"
     y="70"
     transform="rotate(-90)" />
  <rect
     id="toolbutton-pressed-hint-bottom-margin"
     style="opacity:1;fill:#ff0000;stroke-width:0.6123724"
     width="1"
     height="3"
     x="56"
     y="32" />
  <rect
     id="toolbutton-hover-hint-left-margin"
     style="opacity:1;fill:#ff0000;stroke-width:0.6123724"
     width="1"
     height="3"
     x="-19"
     y="0"
     transform="rotate(-90)" />
  <rect
     id="toolbutton-hover-hint-top-margin"
     style="opacity:1;fill:#ff0000;stroke-width:0.6123724"
     width="1"
     height="3"
     x="16"
     y="2" />
  <rect
     id="toolbutton-hover-hint-right-margin"
     style="opacity:1;fill:#ff0000;stroke-width:0.6123724"
     width="1"
     height="3"
     x="-19"
     y="30"
     transform="rotate(-90)" />
  <rect
     id="toolbutton-hover-hint-bottom-margin"
     style="opacity:1;fill:#ff0000;stroke-width:0.61237228"
     width="1"
     height="3"
     x="16"
     y="32" />
  <path
     id="normal-center"
     style="fill:#ffffff;fill-opacity:1;fill-rule:evenodd;stroke-width:0.5;opacity:0.12"
     d="M 5.5000002,43 V 59 H 21.5 V 43 Z" />
  <g
     id="normal-topleft"
     transform="matrix(0.49999999,0,0,0.49999999,-11.5,66)">
    <path
       d="M 34,-58.000001 C 28.25,-58.000001 22.000001,-51.75 22.000001,-46 H 34 Z"
       style="opacity:0.00100002;fill:#000000;fill-opacity:1;fill-rule:evenodd"
       id="path962"
       inkscape:connector-curvature="0"
       sodipodi:nodetypes="cccc" />
    <path
       id="path143"
       style="fill:#ffffff;fill-opacity:1;fill-rule:evenodd;opacity:0.12"
       d="m 34,-56 c -5.75,0 -10,4.25 -10,10 h 10 z" />
  </g>
  <g
     id="normal-topright"
     transform="matrix(0.49999999,0,0,0.49999999,-11.5,66)">
    <path
       d="m 66,-58.000001 c 5.75,0 12.000001,6.250001 12.000001,12.000001 H 66 Z"
       style="opacity:0.00100002;fill:#000000;fill-opacity:1;fill-rule:evenodd"
       id="path964"
       inkscape:connector-curvature="0"
       sodipodi:nodetypes="cccc" />
    <path
       id="path148"
       style="fill:#ffffff;fill-opacity:1;fill-rule:evenodd;opacity:0.12"
       d="m 66,-56 c 5.75,0 10,4.25 10,10 H 66 Z" />
  </g>
  <g
     id="normal-bottomleft"
     transform="matrix(0.49999999,0,0,0.49999999,-11.5,66)">
    <path
       d="m 22,-13.99984 c 0,5.74984 6.24955,11.99988 12,11.9998 v -11.9998 z"
       style="opacity:0.00100002;fill:#000000;fill-opacity:1;fill-rule:evenodd;stroke-width:1.59990025"
       id="path970"
       inkscape:connector-curvature="0"
       sodipodi:nodetypes="cccc" />
    <path
       id="path155"
       style="fill:#ffffff;fill-opacity:1;fill-rule:evenodd;stroke-width:1.59990025;opacity:0.12"
       d="M 24,-13.99984 C 24,-8.25 28.24955,-4 34,-4.00008 v -9.99976 z" />
  </g>
  <g
     id="normal-bottomright"
     transform="matrix(0.49999999,0,0,0.49999999,-11.5,66)">
    <path
       d="M 78.000002,-13.99984 C 78.000002,-8.25 71.75045,-1.99996 66,-2.00004 v -11.9998 z"
       style="opacity:0.00100002;fill:#000000;fill-opacity:1;fill-rule:evenodd;stroke-width:1.59990025"
       id="path974"
       inkscape:connector-curvature="0"
       sodipodi:nodetypes="cccc" />
    <path
       id="path162"
       style="fill:#ffffff;fill-opacity:1;fill-rule:evenodd;stroke-width:1.59990025;opacity:0.12"
       d="M 76,-13.99984 C 76,-8.25 71.75045,-4 66,-4.00008 v -9.99976 z" />
  </g>
  <g
     id="normal-top"
     transform="matrix(0.49999999,0,0,0.49999999,-11.5,66)">
    <path
       d="M 34,-46 H 66 V -58.000001 H 34 Z"
       style="opacity:0.00100002;fill:#000000;fill-opacity:1;fill-rule:evenodd"
       id="path960"
       inkscape:connector-curvature="0"
       sodipodi:nodetypes="ccccc" />
    <path
       id="path167"
       style="fill:#ffffff;fill-opacity:1;fill-rule:evenodd;opacity:0.12"
       d="M 34,-46 H 66 V -56 H 34 Z" />
  </g>
  <g
     id="normal-left"
     transform="matrix(0.49999999,0,0,0.49999999,-11.5,66)">
    <path
       d="M 34,-14.000192 V -45.999995 H 22.000001 v 32 z"
       style="opacity:0.00100002;fill:#000000;fill-opacity:1;fill-rule:evenodd;stroke-width:1.25514328"
       id="path968"
       inkscape:connector-curvature="0"
       sodipodi:nodetypes="ccccc" />
    <path
       id="path172"
       style="fill:#ffffff;fill-opacity:1;fill-rule:evenodd;stroke-width:1.25514328;opacity:0.12"
       d="M 34,-14.000192 V -45.999995 H 24 v 32 z" />
  </g>
  <g
     id="normal-right"
     transform="matrix(0.49999999,0,0,0.49999999,-11.5,66)">
    <path
       d="m 66,-14.000192 v -31.999803 h 12.000001 v 32 z"
       style="opacity:0.00100002;fill:#000000;fill-opacity:1;fill-rule:evenodd;stroke-width:1.25514328"
       id="path966"
       inkscape:connector-curvature="0"
       sodipodi:nodetypes="ccccc" />
    <path
       id="path177"
       style="fill:#ffffff;fill-opacity:1;fill-rule:evenodd;stroke-width:1.25514328;opacity:0.12"
       d="m 66,-14.000192 v -31.999803 h 10 v 32 z" />
  </g>
  <g
     id="normal-bottom"
     transform="matrix(0.49999999,0,0,0.49999999,-11.5,66)">
    <path
       d="M 65.999803,-14 H 34 v 12.00004 h 32 z"
       style="opacity:0.00100002;fill:#000000;fill-opacity:1;fill-rule:evenodd;stroke-width:1.25514328"
       id="path972"
       inkscape:connector-curvature="0"
       sodipodi:nodetypes="ccccc" />
    <path
       id="path184"
       style="fill:#ffffff;fill-opacity:1;fill-rule:evenodd;stroke-width:1.25514328;opacity:0.12"
       d="M 65.999803,-14 H 34 v 10 h 32 z" />
  </g>
  <path
     id="hover-center"
     style="fill:#ffffff;fill-opacity:1;fill-rule:evenodd;stroke-width:0.5;opacity:0.24"
     d="M 35,43 V 59 H 51 V 43 Z" />
  <g
     id="hover-topleft"
     transform="matrix(0.5,0,0,0.5,18,66)">
    <path
       d="m 34,-58 c -5.75,0 -12,6.25 -12,12 h 12 z"
       style="opacity:0.001;fill:#000000;fill-opacity:1;fill-rule:evenodd"
       id="path978"
       inkscape:connector-curvature="0"
       sodipodi:nodetypes="cccc" />
    <path
       id="path190"
       style="fill:#ffffff;fill-opacity:1;fill-rule:evenodd;opacity:0.24"
       d="m 34,-56 c -5.75,0 -10,4.25 -10,10 h 10 z" />
  </g>
  <g
     id="hover-topright"
     transform="matrix(0.5,0,0,0.5,18,66)">
    <path
       d="m 66,-58 c 5.75,0 12,6.25 12,12 H 66 Z"
       style="opacity:0.001;fill:#000000;fill-opacity:1;fill-rule:evenodd"
       id="path982"
       inkscape:connector-curvature="0"
       sodipodi:nodetypes="cccc" />
    <path
       id="path193"
       style="fill:#ffffff;fill-opacity:1;fill-rule:evenodd;opacity:0.24"
       d="m 66,-56 c 5.75,0 10,4.25 10,10 H 66 Z" />
  </g>
  <g
     id="hover-bottomleft"
     transform="matrix(0.5,0,0,0.5,18,66)">
    <path
       d="m 22,-13.99984 c 0,5.74984 6.24955,11.99988 12,11.9998 v -11.9998 z"
       style="opacity:0.001;fill:#000000;fill-opacity:1;fill-rule:evenodd;stroke-width:1.59990025"
       id="path990"
       inkscape:connector-curvature="0"
       sodipodi:nodetypes="cccc" />
    <path
       id="path198"
       style="fill:#ffffff;fill-opacity:1;fill-rule:evenodd;stroke-width:1.59990025;opacity:0.24"
       d="M 24,-13.99984 C 24,-8.25 28.24955,-4 34,-4.00008 v -9.99976 z" />
  </g>
  <g
     id="hover-bottomright"
     transform="matrix(0.5,0,0,0.5,18,66)">
    <path
       d="M 78,-13.99984 C 78,-8.25 71.75045,-1.99996 66,-2.00004 v -11.9998 z"
       style="opacity:0.001;fill:#000000;fill-opacity:1;fill-rule:evenodd;stroke-width:1.59990025"
       id="path986"
       inkscape:connector-curvature="0"
       sodipodi:nodetypes="cccc" />
    <path
       id="path203"
       style="fill:#ffffff;fill-opacity:1;fill-rule:evenodd;stroke-width:1.59990025;opacity:0.24"
       d="M 76,-13.99984 C 76,-8.25 71.75045,-4 66,-4.00008 v -9.99976 z" />
  </g>
  <g
     id="hover-top"
     transform="matrix(0.5,0,0,0.5,18,66)">
    <path
       d="M 34,-46 H 66 V -58 H 34 Z"
       style="opacity:0.001;fill:#000000;fill-opacity:1;fill-rule:evenodd"
       id="path980"
       inkscape:connector-curvature="0"
       sodipodi:nodetypes="ccccc" />
    <path
       id="path206"
       style="fill:#ffffff;fill-opacity:1;fill-rule:evenodd;opacity:0.24"
       d="M 34,-46 H 66 V -56 H 34 Z" />
  </g>
  <g
     id="hover-left"
     transform="matrix(0.5,0,0,0.5,18,66)">
    <path
       d="M 34,-14.000192 V -45.999995 H 22 v 32 z"
       style="opacity:0.001;fill:#000000;fill-opacity:1;fill-rule:evenodd;stroke-width:1.25514328"
       id="path992"
       inkscape:connector-curvature="0"
       sodipodi:nodetypes="ccccc" />
    <path
       id="path209"
       style="fill:#ffffff;fill-opacity:1;fill-rule:evenodd;stroke-width:1.25514328;opacity:0.24"
       d="M 34,-14.000192 V -45.999995 H 24 v 32 z" />
  </g>
  <g
     id="hover-right"
     transform="matrix(0.5,0,0,0.5,18,66)">
    <path
       d="m 66,-14.000192 v -31.999803 h 12 v 32 z"
       style="opacity:0.001;fill:#000000;fill-opacity:1;fill-rule:evenodd;stroke-width:1.25514328"
       id="path984"
       inkscape:connector-curvature="0"
       sodipodi:nodetypes="ccccc" />
    <path
       id="path212"
       style="fill:#ffffff;fill-opacity:1;fill-rule:evenodd;stroke-width:1.25514328;opacity:0.24"
       d="m 66,-14.000192 v -31.999803 h 10 v 32 z" />
  </g>
  <g
     id="hover-bottom"
     transform="matrix(0.5,0,0,0.5,18,66)">
    <path
       d="M 65.999803,-14 H 34 v 12.00004 h 32 z"
       style="opacity:0.001;fill:#000000;fill-opacity:1;fill-rule:evenodd;stroke-width:1.25514328"
       id="path988"
       inkscape:connector-curvature="0"
       sodipodi:nodetypes="ccccc" />
    <path
       id="path217"
       style="fill:#ffffff;fill-opacity:1;fill-rule:evenodd;stroke-width:1.25514328;opacity:0.24"
       d="M 65.999803,-14 H 34 v 10 h 32 z" />
  </g>
  <path
     id="focus-center"
     style="fill:#ffffff;fill-opacity:1;fill-rule:evenodd;stroke-width:0.5;opacity:0.24"
     d="M 65,43 V 59 H 81 V 43 Z" />
  <g
     id="focus-topleft"
     transform="matrix(0.5,0,0,0.5,48,66)">
    <path
       d="M 34,-58.000001 C 28.25,-58.000001 22,-51.75 22,-46 h 12 z"
       style="opacity:0.001;fill:#000000;fill-opacity:1;fill-rule:evenodd"
       id="path994"
       inkscape:connector-curvature="0"
       sodipodi:nodetypes="cccc" />
    <path
       id="path221"
       style="fill:#ffffff;fill-opacity:1;fill-rule:evenodd;opacity:0.24"
       d="m 34,-56 c -5.75,0 -10,4.25 -10,10 h 10 z" />
  </g>
  <g
     id="focus-topright"
     transform="matrix(0.5,0,0,0.5,48,66)">
    <path
       d="m 66,-58.000001 c 5.75,0 12.000001,6.250001 12.000001,12.000001 H 66 Z"
       style="opacity:0.001;fill:#000000;fill-opacity:1;fill-rule:evenodd"
       id="path998"
       inkscape:connector-curvature="0"
       sodipodi:nodetypes="cccc" />
    <path
       id="path224"
       style="fill:#ffffff;fill-opacity:1;fill-rule:evenodd;opacity:0.24"
       d="m 66,-56 c 5.75,0 10,4.25 10,10 H 66 Z" />
  </g>
  <g
     id="focus-bottomleft"
     transform="matrix(0.5,0,0,0.5,48,66)">
    <path
       d="m 22,-13.99984 c 0,5.74984 6.24955,11.99988 12,11.9998 v -11.9998 z"
       style="opacity:0.001;fill:#000000;fill-opacity:1;fill-rule:evenodd;stroke-width:1.59990025"
       id="path1006"
       inkscape:connector-curvature="0"
       sodipodi:nodetypes="cccc" />
    <path
       id="path229"
       style="fill:#ffffff;fill-opacity:1;fill-rule:evenodd;stroke-width:1.59990025;opacity:0.24"
       d="M 24,-13.99984 C 24,-8.25 28.24955,-4 34,-4.00008 v -9.99976 z" />
  </g>
  <g
     id="focus-bottomright"
     transform="matrix(0.5,0,0,0.5,48,66)">
    <path
       d="M 78.000001,-13.99984 C 78.000001,-8.25 71.75045,-1.99996 66,-2.00004 v -11.9998 z"
       style="opacity:0.001;fill:#000000;fill-opacity:1;fill-rule:evenodd;stroke-width:1.59990025"
       id="path1002"
       inkscape:connector-curvature="0"
       sodipodi:nodetypes="cccc" />
    <path
       id="path234"
       style="fill:#ffffff;fill-opacity:1;fill-rule:evenodd;stroke-width:1.59990025;opacity:0.24"
       d="M 76,-13.99984 C 76,-8.25 71.75045,-4 66,-4.00008 v -9.99976 z" />
  </g>
  <g
     id="focus-top"
     transform="matrix(0.5,0,0,0.5,48,66)">
    <path
       d="M 34,-46 H 66 V -58.000001 H 34 Z"
       style="opacity:0.001;fill:#000000;fill-opacity:1;fill-rule:evenodd"
       id="path996"
       inkscape:connector-curvature="0"
       sodipodi:nodetypes="ccccc" />
    <path
       id="path237"
       style="fill:#ffffff;fill-opacity:1;fill-rule:evenodd;opacity:0.24"
       d="M 34,-46 H 66 V -56 H 34 Z" />
  </g>
  <g
     id="focus-left"
     transform="matrix(0.5,0,0,0.5,48,66)">
    <path
       d="M 34,-14.000192 V -45.999995 H 22 v 32 z"
       style="opacity:0.001;fill:#000000;fill-opacity:1;fill-rule:evenodd;stroke-width:1.25514328"
       id="path1008"
       inkscape:connector-curvature="0"
       sodipodi:nodetypes="ccccc" />
    <path
       id="path240"
       style="fill:#ffffff;fill-opacity:1;fill-rule:evenodd;stroke-width:1.25514328;opacity:0.24"
       d="M 34,-14.000192 V -45.999995 H 24 v 32 z" />
  </g>
  <g
     id="focus-right"
     transform="matrix(0.5,0,0,0.5,48,66)">
    <path
       d="m 66,-14.000192 v -31.999803 h 12.000001 v 32 z"
       style="opacity:0.001;fill:#000000;fill-opacity:1;fill-rule:evenodd;stroke-width:1.25514328"
       id="path1000"
       inkscape:connector-curvature="0"
       sodipodi:nodetypes="ccccc" />
    <path
       id="path243"
       style="fill:#ffffff;fill-opacity:1;fill-rule:evenodd;stroke-width:1.25514328;opacity:0.24"
       d="m 66,-14.000192 v -31.999803 h 10 v 32 z" />
  </g>
  <g
     id="focus-bottom"
     transform="matrix(0.5,0,0,0.5,48,66)">
    <path
       d="M 65.999803,-14 H 34 v 12.00004 h 32 z"
       style="opacity:0.001;fill:#000000;fill-opacity:1;fill-rule:evenodd;stroke-width:1.25514328"
       id="path1004"
       inkscape:connector-curvature="0"
       sodipodi:nodetypes="ccccc" />
    <path
       id="path248"
       style="fill:#ffffff;fill-opacity:1;fill-rule:evenodd;stroke-width:1.25514328;opacity:0.24"
       d="M 65.999803,-14 H 34 v 10 h 32 z" />
  </g>
  <rect
     id="normal-hint-top-margin"
     style="opacity:1;fill:#ff0000;stroke-width:0.91287088"
     width="1"
     height="5"
     x="13"
     y="38" />
  <rect
     id="normal-hint-right-margin"
     style="opacity:1;fill:#ff0000;stroke-width:0.91287088"
     width="1"
     height="5"
     x="-51"
     y="21.5"
     transform="rotate(-90)" />
  <rect
     id="normal-hint-left-margin"
     style="opacity:1;fill:#ff0000;stroke-width:0.91287088"
     width="1"
     height="5"
     x="-51.5"
     y=".5"
     transform="rotate(-90)" />
  <rect
     id="normal-hint-bottom-margin"
     style="opacity:1;fill:#ff0000;stroke-width:0.91287094"
     width="1"
     height="5"
     x="13"
     y="59" />
  <rect
     id="hover-hint-top-margin"
     style="opacity:1;fill:#ff0000;stroke-width:0.5"
     width="1"
     height=".1"
     x="42.5"
     y="38" />
  <rect
     id="hover-hint-left-margin"
     style="opacity:1;fill:#ff0000;stroke-width:0.5"
     width="1"
     height=".1"
     x="-51.5"
     y="30"
     transform="rotate(-90)" />
  <rect
     id="hover-hint-bottom-margin"
     style="opacity:1;fill:#ff0000;stroke-width:0.40824831"
     width="1"
     height=".1"
     x="42.5"
     y="63.9" />
  <rect
     id="hover-hint-right-margin"
     style="opacity:1;fill:#ff0000;stroke-width:0.49999997"
     width="1"
     height=".1"
     x="-51.5"
     y="55.9"
     transform="rotate(-90)" />
  <rect
     id="hint-stretch-borders"
     style="opacity:1;fill:#ff0000"
     width="2"
     height="2"
     x="0"
     y="0"
     ry="0" />
  <rect
     id="focus-hint-top-margin"
     style="opacity:1;fill:#ff0000;stroke-width:0.49999997"
     width="1"
     height=".1"
     x="72.5"
     y="38" />
  <rect
     id="focus-hint-left-margin"
     style="opacity:1;fill:#ff0000;stroke-width:0.5"
     width="1"
     height=".1"
     x="-51.5"
     y="60"
     transform="rotate(-90)" />
  <rect
     id="focus-hint-bottom-margin"
     style="opacity:1;fill:#ff0000;stroke-width:0.40824828"
     width="1"
     height=".1"
     x="72.5"
     y="63.9" />
  <rect
     id="focus-hint-right-margin"
     style="opacity:1;fill:#ff0000;stroke-width:0.49999997"
     width="1"
     height=".1"
     x="-51.5"
     y="85.9"
     transform="rotate(-90)" />
  <path
     id="pressed-center"
     style="fill:#ffffff;fill-opacity:1;fill-rule:evenodd;stroke-width:0.5;opacity:0.24"
     d="m 95.5,43 v 16 h 16 V 43 Z" />
  <g
     id="pressed-topleft"
     transform="matrix(0.49999999,0,0,0.49999999,78.5,66)">
    <path
       d="M 34,-58.000001 C 28.25,-58.000001 22,-51.75 22,-46 h 12 z"
       style="opacity:0.001;fill:#000000;fill-opacity:1;fill-rule:evenodd"
       id="path1010"
       inkscape:connector-curvature="0"
       sodipodi:nodetypes="cccc" />
    <path
       id="path265"
       style="fill:#ffffff;fill-opacity:1;fill-rule:evenodd;opacity:0.24"
       d="m 34,-56 c -5.75,0 -10,4.25 -10,10 h 10 z" />
  </g>
  <g
     id="pressed-topright"
     transform="matrix(0.49999999,0,0,0.49999999,78.5,66)">
    <path
       d="m 66,-58.000001 c 5.75,0 12.000001,6.250001 12.000001,12.000001 H 66 Z"
       style="opacity:0.001;fill:#000000;fill-opacity:1;fill-rule:evenodd"
       id="path1014"
       inkscape:connector-curvature="0"
       sodipodi:nodetypes="cccc" />
    <path
       id="path270"
       style="fill:#ffffff;fill-opacity:1;fill-rule:evenodd;opacity:0.24"
       d="m 66,-56 c 5.75,0 10,4.25 10,10 H 66 Z" />
  </g>
  <g
     id="pressed-bottomleft"
     transform="matrix(0.49999999,0,0,0.49999999,78.5,66)">
    <path
       d="m 22,-13.99984 c 0,5.74984 6.24955,11.99988 12,11.9998 v -11.9998 z"
       style="opacity:0.001;fill:#000000;fill-opacity:1;fill-rule:evenodd;stroke-width:1.59990025"
       id="path1022"
       inkscape:connector-curvature="0"
       sodipodi:nodetypes="cccc" />
    <path
       id="path277"
       style="fill:#ffffff;fill-opacity:1;fill-rule:evenodd;stroke-width:1.59990025;opacity:0.24"
       d="M 24,-13.99984 C 24,-8.25 28.24955,-4 34,-4.00008 v -9.99976 z" />
  </g>
  <g
     id="pressed-bottomright"
     transform="matrix(0.49999999,0,0,0.49999999,78.5,66)">
    <path
       d="M 78.000001,-13.99984 C 78.000001,-8.25 71.75045,-1.99996 66,-2.00004 v -11.9998 z"
       style="opacity:0.001;fill:#000000;fill-opacity:1;fill-rule:evenodd;stroke-width:1.59990025"
       id="path1018"
       inkscape:connector-curvature="0"
       sodipodi:nodetypes="cccc" />
    <path
       id="path284"
       style="fill:#ffffff;fill-opacity:1;fill-rule:evenodd;stroke-width:1.59990025;opacity:0.24"
       d="M 76,-13.99984 C 76,-8.25 71.75045,-4 66,-4.00008 v -9.99976 z" />
  </g>
  <g
     id="pressed-top"
     transform="matrix(0.49999999,0,0,0.49999999,78.5,66)">
    <path
       d="M 34,-46 H 66 V -58.000001 H 34 Z"
       style="opacity:0.001;fill:#000000;fill-opacity:1;fill-rule:evenodd"
       id="path1012"
       inkscape:connector-curvature="0"
       sodipodi:nodetypes="ccccc" />
    <path
       id="path289"
       style="fill:#ffffff;fill-opacity:1;fill-rule:evenodd;opacity:0.24"
       d="M 34,-46 H 66 V -56 H 34 Z" />
  </g>
  <g
     id="pressed-left"
     transform="matrix(0.49999999,0,0,0.49999999,78.5,66)">
    <path
       d="M 34,-14.000192 V -45.999995 H 22 v 32 z"
       style="opacity:0.001;fill:#000000;fill-opacity:1;fill-rule:evenodd;stroke-width:1.25514328"
       id="path1024"
       inkscape:connector-curvature="0"
       sodipodi:nodetypes="ccccc" />
    <path
       id="path294"
       style="fill:#ffffff;fill-opacity:1;fill-rule:evenodd;stroke-width:1.25514328;opacity:0.24"
       d="M 34,-14.000192 V -45.999995 H 24 v 32 z" />
  </g>
  <g
     id="pressed-right"
     transform="matrix(0.49999999,0,0,0.49999999,78.5,66)">
    <path
       d="m 66,-14.000192 v -31.999803 h 12.000001 v 32 z"
       style="opacity:0.001;fill:#000000;fill-opacity:1;fill-rule:evenodd;stroke-width:1.25514328"
       id="path1016"
       inkscape:connector-curvature="0"
       sodipodi:nodetypes="ccccc" />
    <path
       id="path299"
       style="fill:#ffffff;fill-opacity:1;fill-rule:evenodd;stroke-width:1.25514328;opacity:0.24"
       d="m 66,-14.000192 v -31.999803 h 10 v 32 z" />
  </g>
  <g
     id="pressed-bottom"
     transform="matrix(0.49999999,0,0,0.49999999,78.5,66)">
    <path
       d="M 65.999803,-14 H 34 v 12.00004 h 32 z"
       style="opacity:0.001;fill:#000000;fill-opacity:1;fill-rule:evenodd;stroke-width:1.25514328"
       id="path1020"
       inkscape:connector-curvature="0"
       sodipodi:nodetypes="ccccc" />
    <path
       id="path306"
       style="fill:#ffffff;fill-opacity:1;fill-rule:evenodd;stroke-width:1.25514328;opacity:0.24"
       d="M 65.999803,-14 H 34 v 10 h 32 z" />
  </g>
  <rect
     id="pressed-hint-top-margin"
     style="opacity:1;fill:#ff0000;stroke-width:0.91287088"
     width="1"
     height="5"
     x="103"
     y="38" />
  <rect
     id="pressed-hint-right-margin"
     style="opacity:1;fill:#ff0000;stroke-width:0.91287094"
     width="1"
     height="5"
     x="-51.5"
     y="111.5"
     transform="rotate(-90)" />
  <rect
     id="pressed-hint-left-margin"
     style="opacity:1;fill:#ff0000;stroke-width:0.91287094"
     width="1"
     height="5"
     x="-51.5"
     y="90.5"
     transform="rotate(-90)" />
  <rect
     id="pressed-hint-bottom-margin"
     style="opacity:1;fill:#ff0000;stroke-width:0.91287106"
     width="1"
     height="5"
     x="103"
     y="59" />
</svg>
