<?xml version="1.0" encoding="UTF-8" standalone="no"?>
<svg
   xmlns:dc="http://purl.org/dc/elements/1.1/"
   xmlns:cc="http://creativecommons.org/ns#"
   xmlns:rdf="http://www.w3.org/1999/02/22-rdf-syntax-ns#"
   xmlns:svg="http://www.w3.org/2000/svg"
   xmlns="http://www.w3.org/2000/svg"
   xmlns:sodipodi="http://sodipodi.sourceforge.net/DTD/sodipodi-0.dtd"
   xmlns:inkscape="http://www.inkscape.org/namespaces/inkscape"
   id="svg250"
   width="86"
   height="30"
   version="1"
   sodipodi:docname="pager.svg"
   inkscape:version="0.92.5 (2060ec1f9f, 2020-04-08)">
  <metadata
     id="metadata112">
    <rdf:RDF>
      <cc:Work
         rdf:about="">
        <dc:format>image/svg+xml</dc:format>
        <dc:type
           rdf:resource="http://purl.org/dc/dcmitype/StillImage" />
      </cc:Work>
    </rdf:RDF>
  </metadata>
  <defs
     id="defs110" />
  <sodipodi:namedview
     pagecolor="#ffffff"
     bordercolor="#666666"
     borderopacity="1"
     objecttolerance="10"
     gridtolerance="10"
     guidetolerance="10"
     inkscape:pageopacity="0"
     inkscape:pageshadow="2"
     inkscape:window-width="1920"
     inkscape:window-height="1022"
     id="namedview108"
     showgrid="true"
     inkscape:zoom="8.84"
     inkscape:cx="37.61718"
     inkscape:cy="20.972378"
     inkscape:window-x="0"
     inkscape:window-y="30"
     inkscape:window-maximized="1"
     inkscape:current-layer="svg250">
    <inkscape:grid
       type="xygrid"
       id="grid919" />
  </sodipodi:namedview>
  <g
     id="active-top"
     style="enable-background:new"
     transform="matrix(0.49999904,0,0,0.49999904,51.500069,-1.2499415)">
    <path
       id="path179"
       style="fill:#000000;fill-opacity:1;fill-rule:evenodd;stroke-width:0.49999905;opacity:0.9"
       transform="matrix(2.0000038,0,0,2.0000038,-103.00034,2.4998878)"
       d="M 65 3 L 65 3.5 L 65 8.5 L 81 8.5 L 81 3.5 L 81 3 L 65 3 z" />
    <g
       id="g185"
       style="color:#000000">
      <path
         id="path183"
         style="opacity:0.24;fill:#ffffff;fill-opacity:1"
         d="M 59,9.5001 H 27 l -8.5e-5,9.99982 32.000079,8.2e-5 z" />
    </g>
  </g>
  <g
     id="active-topright"
     style="enable-background:new"
     transform="matrix(0.49999904,0,0,0.49999904,17.500125,-1.4999405)">
    <g
       id="g194"
       transform="translate(68,0.5)">
      <path
         id="path188"
         style="fill:#000000;fill-rule:evenodd;stroke-width:0.49999905;opacity:0.9"
         transform="matrix(2.0000038,0,0,2.0000038,-103.00032,2.4998868)"
         d="M 81 3 L 81 3.5 L 81 8.5 L 86 8.5 L 86 3 C 86 3 81.00001 3.0000495 81 3 z" />
      <path
         id="path192"
         style="opacity:0.23999999;fill:#ffffff;fill-opacity:1;fill-rule:evenodd"
         transform="translate(-6,-0.5)"
         d="m 65,10 v 1 l -1.4e-5,8.999919 L 75,20 c 0,-9.000098 1.3e-5,-10 -10,-10 z"
         inkscape:connector-curvature="0"
         sodipodi:nodetypes="ccccc" />
    </g>
  </g>
  <g
     id="active-bottomright"
     style="enable-background:new"
     transform="matrix(0.49999904,0,0,-0.49999904,17.500125,34.499991)">
    <g
       id="g204"
       transform="translate(68,0.5)">
      <path
         id="path996-1"
         style="fill:#000000;fill-rule:evenodd;stroke-width:0.49999905;opacity:0.9"
         transform="matrix(2.0000038,0,0,-2.0000038,-103.00032,68.500114)"
         d="M 81 24.5 L 81 29.5 L 81 30 L 86 30 C 86 30 86.000006 24.499999 86 24.5 L 81 24.5 z" />
      <path
         id="path202"
         style="opacity:0.23999999;fill:#ffffff;fill-opacity:1;fill-rule:evenodd"
         transform="translate(-6,-0.5)"
         d="m 65,10 1.2e-5,9.999998 c 0,0 8.999999,5e-6 8.999988,2e-6 h 1 c 0,-8.999997 1.3e-5,-10 -10,-10 z"
         inkscape:connector-curvature="0"
         sodipodi:nodetypes="ccccc" />
    </g>
  </g>
  <g
     id="active-right"
     style="enable-background:new"
     transform="matrix(0,0.49999904,-0.49999904,0,90.74999,-4.9999345)">
    <path
       id="path207"
       style="fill:#000000;fill-rule:evenodd;opacity:0.9"
       d="M 27,19.5 H 59 V 9.5 H 27 Z" />
    <g
       id="g211"
       style="color:#000000">
      <path
         id="path209"
         style="opacity:0.24;fill:#ffffff;fill-opacity:1"
         d="M 59,9.5001 H 27 l 2e-6,9.999899 31.999979,2.6e-5 z" />
    </g>
  </g>
  <g
     id="active-bottom"
     style="enable-background:new"
     transform="matrix(0.49999904,0,0,-0.49999904,51.500069,34.249992)">
    <path
       id="path214"
       style="fill:#000000;fill-rule:evenodd;stroke-width:0.49999905;opacity:0.9"
       transform="matrix(2.0000038,0,0,-2.0000038,-103.00034,68.500116)"
       d="M 65 24.5 L 65 29.5 L 65 30 L 81 30 L 81 29.5 L 81 24.5 L 65 24.5 z" />
    <g
       id="g222"
       style="color:#000000">
      <path
         id="path220"
         style="opacity:0.24;fill:#ffffff;fill-opacity:1"
         d="M 59,9.5001 H 27 l -9e-6,9.9999 31.999977,2.3e-5 z" />
    </g>
  </g>
  <g
     id="active-topleft"
     style="enable-background:new"
     transform="matrix(-0.49999904,0,0,0.49999904,128.49987,-1.4999405)">
    <g
       id="g230"
       transform="translate(68,0.5)">
      <path
         id="path998-2"
         style="fill:#000000;fill-rule:evenodd;stroke-width:0.49999905;opacity:0.9"
         transform="matrix(-2.0000038,0,0,2.0000038,189.00023,2.4998868)"
         d="M 60 3 L 60 8.5 L 65 8.5 L 65 3.5 L 65 3 L 60 3 z" />
      <path
         id="path228"
         style="opacity:0.23999999;fill:#ffffff;fill-opacity:1;fill-rule:evenodd"
         transform="translate(-6,-0.5)"
         d="m 65,10 3e-6,10.000001 c 0,0 9,0 8.999997,-1e-6 h 1 c 3e-6,-9.000098 3e-6,-10 -10,-10 z"
         inkscape:connector-curvature="0"
         sodipodi:nodetypes="ccccc" />
    </g>
  </g>
  <g
     id="active-bottomleft"
     style="enable-background:new"
     transform="matrix(-0.49999904,0,0,-0.49999904,128.49987,34.499991)">
    <g
       id="g240"
       transform="translate(68,0.5)">
      <path
         id="path1000-7"
         style="fill:#000000;fill-rule:evenodd;stroke-width:0.49999905;opacity:0.9"
         transform="matrix(-2.0000038,0,0,-2.0000038,189.00023,68.500114)"
         d="M 60 24.5 C 59.999999 24.5 60 30 60 30 L 65 30 L 65 29.5 L 65 24.5 L 60 24.5 z" />
      <path
         id="path238"
         style="opacity:0.23999999;fill:#ffffff;fill-opacity:1;fill-rule:evenodd"
         transform="translate(-6,-0.5)"
         d="m 65,10 v 1 c 0,0 -9.4e-5,8.999999 -9e-6,9.000022 L 75,20 c 0,-8.999997 3e-6,-10 -10,-10 z"
         inkscape:connector-curvature="0"
         sodipodi:nodetypes="ccccc" />
    </g>
  </g>
  <g
     id="active-left"
     style="enable-background:new"
     transform="matrix(0,0.49999904,0.49999904,0,55.250009,-4.9999335)">
    <path
       id="path243"
       style="fill:#000000;fill-rule:evenodd;opacity:0.9"
       d="M 27,19.5 H 59 V 9.5 H 27 Z" />
    <g
       id="g247"
       style="color:#000000">
      <path
         id="path245"
         style="opacity:0.24;fill:#ffffff;fill-opacity:1"
         d="M 59,9.5001 H 27 l 0,9.9999 32.000002,9.7e-5 z" />
    </g>
  </g>
  <g
     id="active-center">
    <path
       id="path1069"
       style="opacity:0.9;fill:#000000;fill-rule:evenodd;stroke-width:0.49999905;enable-background:new"
       d="M 65.000001,8.4999998 V 24.499971 h 15.99997 V 8.4999998 Z" />
    <path
       id="path1071"
       style="opacity:0.24;fill:#ffffff;fill-rule:evenodd;stroke-width:0.49999905;enable-background:new;fill-opacity:1"
       d="M 65.000001,8.4999998 V 24.499971 h 15.99997 V 8.4999998 Z" />
  </g>
  <g
     id="hover-top"
     style="enable-background:new"
     transform="matrix(0.49999904,0,0,0.49999904,22.500069,-1.2499415)">
    <path
       id="path1077"
       style="opacity:0.9;fill:#000000;fill-opacity:1;fill-rule:evenodd;stroke-width:0.49999905"
       transform="matrix(2.0000038,0,0,2.0000038,-103.00034,2.4998878)"
       d="m 65,3 v 0.5 5 H 81 V 3.5 3 Z" />
    <g
       id="g1081"
       style="color:#000000">
      <path
         id="path1079"
         style="opacity:0.24;fill:#ffffff;fill-opacity:1"
         d="M 59,9.5001 H 27 l -8.5e-5,9.99982 32.000079,8.2e-5 z" />
    </g>
  </g>
  <g
     id="hover-topright"
     style="enable-background:new"
     transform="matrix(0.49999904,0,0,0.49999904,-11.499875,-1.4999405)">
    <g
       id="g1089"
       transform="translate(68,0.5)">
      <path
         id="path1085"
         style="opacity:0.9;fill:#000000;fill-rule:evenodd;stroke-width:0.49999905"
         transform="matrix(2.0000038,0,0,2.0000038,-103.00032,2.4998868)"
         d="m 81,3 v 0.5 5 h 5 V 3 c 0,0 -4.99999,4.95e-5 -5,0 z" />
      <path
         id="path1087"
         style="opacity:0.23999999;fill:#ffffff;fill-opacity:1;fill-rule:evenodd"
         transform="translate(-6,-0.5)"
         d="m 65,10 v 1 l -1.4e-5,8.999919 L 75,20 c 1.3e-5,-9.000098 1.3e-5,-10 -10,-10 z"
         inkscape:connector-curvature="0"
         sodipodi:nodetypes="ccccc" />
    </g>
  </g>
  <g
     id="hover-bottomright"
     style="enable-background:new"
     transform="matrix(0.49999904,0,0,-0.49999904,-11.499875,34.499991)">
    <g
       id="g1097"
       transform="translate(68,0.5)">
      <path
         id="path1093"
         style="opacity:0.9;fill:#000000;fill-rule:evenodd;stroke-width:0.49999905"
         transform="matrix(2.0000038,0,0,-2.0000038,-103.00032,68.500114)"
         d="m 81,24.5 v 5 0.5 h 5 c 0,0 6e-6,-5.500001 0,-5.5 z" />
      <path
         id="path1095"
         style="opacity:0.23999999;fill:#ffffff;fill-opacity:1;fill-rule:evenodd"
         transform="translate(-6,-0.5)"
         d="m 65,10 1.2e-5,9.999998 c 0,0 8.999999,5e-6 8.999988,2e-6 h 1 c 0,-8.999997 1.3e-5,-10 -10,-10 z"
         inkscape:connector-curvature="0"
         sodipodi:nodetypes="ccccc" />
    </g>
  </g>
  <g
     id="hover-right"
     style="enable-background:new"
     transform="matrix(0,0.49999904,-0.49999904,0,61.74999,-4.9999345)">
    <path
       id="path1101"
       style="opacity:0.9;fill:#000000;fill-rule:evenodd"
       d="M 27,19.5 H 59 V 9.5 H 27 Z" />
    <g
       id="g1105"
       style="color:#000000">
      <path
         id="path1103"
         style="opacity:0.24;fill:#ffffff;fill-opacity:1"
         d="M 59,9.5001 H 27 l 2e-6,9.999899 31.999979,2.6e-5 z" />
    </g>
  </g>
  <g
     id="hover-bottom"
     style="enable-background:new"
     transform="matrix(0.49999904,0,0,-0.49999904,22.500069,34.249992)">
    <path
       id="path1109"
       style="opacity:0.9;fill:#000000;fill-rule:evenodd;stroke-width:0.49999905"
       transform="matrix(2.0000038,0,0,-2.0000038,-103.00034,68.500116)"
       d="m 65,24.5 v 5 0.5 h 16 v -0.5 -5 z" />
    <g
       id="g1113"
       style="color:#000000">
      <path
         id="path1111"
         style="opacity:0.24;fill:#ffffff;fill-opacity:1"
         d="M 59,9.5001 H 27 l -9e-6,9.9999 31.999977,2.3e-5 z" />
    </g>
  </g>
  <g
     id="hover-topleft"
     style="enable-background:new"
     transform="matrix(-0.49999904,0,0,0.49999904,99.49987,-1.4999405)">
    <g
       id="g1121"
       transform="translate(68,0.5)">
      <path
         id="path1117"
         style="opacity:0.9;fill:#000000;fill-rule:evenodd;stroke-width:0.49999905"
         transform="matrix(-2.0000038,0,0,2.0000038,189.00023,2.4998868)"
         d="m 60,3 v 5.5 h 5 V 3.5 3 Z" />
      <path
         id="path1119"
         style="opacity:0.23999999;fill:#ffffff;fill-opacity:1;fill-rule:evenodd"
         transform="translate(-6,-0.5)"
         d="m 65,10 3e-6,10.000001 c 0,0 9,0 8.999997,-1e-6 h 1 c 3e-6,-9.000098 3e-6,-10 -10,-10 z"
         inkscape:connector-curvature="0"
         sodipodi:nodetypes="ccccc" />
    </g>
  </g>
  <g
     id="hover-bottomleft"
     style="enable-background:new"
     transform="matrix(-0.49999904,0,0,-0.49999904,99.49987,34.499991)">
    <g
       id="g1129"
       transform="translate(68,0.5)">
      <path
         id="path1125"
         style="opacity:0.9;fill:#000000;fill-rule:evenodd;stroke-width:0.49999905"
         transform="matrix(-2.0000038,0,0,-2.0000038,189.00023,68.500114)"
         d="m 60,24.5 c -10e-7,0 0,5.5 0,5.5 h 5 v -0.5 -5 z" />
      <path
         id="path1127"
         style="opacity:0.23999999;fill:#ffffff;fill-opacity:1;fill-rule:evenodd"
         transform="translate(-6,-0.5)"
         d="m 65,10 v 1 c 0,0 -9.4e-5,8.999999 -9e-6,9.000022 L 75,20 c 0,-8.999997 3e-6,-10 -10,-10 z"
         inkscape:connector-curvature="0"
         sodipodi:nodetypes="ccccc" />
    </g>
  </g>
  <g
     id="hover-left"
     style="enable-background:new"
     transform="matrix(0,0.49999904,0.49999904,0,26.250009,-4.9999335)">
    <path
       id="path1133"
       style="opacity:0.9;fill:#000000;fill-rule:evenodd"
       d="M 27,19.5 H 59 V 9.5 H 27 Z" />
    <g
       id="g1137"
       style="color:#000000">
      <path
         id="path1135"
         style="opacity:0.24;fill:#ffffff;fill-opacity:1"
         d="M 59,9.5001 H 27 V 19.5 l 32.000002,9.7e-5 z" />
    </g>
  </g>
  <g
     id="hover-center"
     transform="translate(-29)">
    <path
       id="path1141"
       style="opacity:0.9;fill:#000000;fill-rule:evenodd;stroke-width:0.49999905;enable-background:new"
       d="M 65.000001,8.4999998 V 24.499971 h 15.99997 V 8.4999998 Z" />
    <path
       id="path1143"
       style="opacity:0.24;fill:#ffffff;fill-opacity:1;fill-rule:evenodd;stroke-width:0.49999905;enable-background:new"
       d="M 65.000001,8.4999998 V 24.499971 h 15.99997 V 8.4999998 Z" />
  </g>
  <g
     id="normal-top"
     style="enable-background:new"
     transform="matrix(0.49999904,0,0,0.49999904,-8.4999309,-1.2499415)">
    <path
       id="path1147"
       style="opacity:0.9;fill:#000000;fill-opacity:1;fill-rule:evenodd;stroke-width:0.49999905"
       transform="matrix(2.0000038,0,0,2.0000038,-103.00034,2.4998878)"
       d="m 65,3 v 0.5 5 H 81 V 3.5 3 Z" />
    <g
       id="g1151"
       style="color:#000000">
      <path
         id="path1149"
         style="opacity:0.12;fill:#ffffff;fill-opacity:1"
         d="M 59,9.5001 H 27 l -8.5e-5,9.99982 32.000079,8.2e-5 z" />
    </g>
  </g>
  <g
     id="normal-topright"
     style="enable-background:new"
     transform="matrix(0.49999904,0,0,0.49999904,-42.499875,-1.4999405)">
    <g
       id="g1159"
       transform="translate(68,0.5)">
      <path
         id="path1155"
         style="opacity:0.9;fill:#000000;fill-rule:evenodd;stroke-width:0.49999905"
         transform="matrix(2.0000038,0,0,2.0000038,-103.00032,2.4998868)"
         d="m 81,3 v 0.5 5 h 5 V 3 c 0,0 -4.99999,4.95e-5 -5,0 z" />
      <path
         id="path1157"
         style="opacity:0.12000002;fill:#ffffff;fill-opacity:1;fill-rule:evenodd"
         transform="translate(-6,-0.5)"
         d="m 65,10 v 1 l -1.4e-5,8.999919 L 75,20 c 0,-9.000098 1.3e-5,-10 -10,-10 z"
         inkscape:connector-curvature="0"
         sodipodi:nodetypes="ccccc" />
    </g>
  </g>
  <g
     id="normal-bottomright"
     style="enable-background:new"
     transform="matrix(0.49999904,0,0,-0.49999904,-42.499875,34.499991)">
    <g
       id="g1167"
       transform="translate(68,0.5)">
      <path
         id="path1163"
         style="opacity:0.9;fill:#000000;fill-rule:evenodd;stroke-width:0.49999905"
         transform="matrix(2.0000038,0,0,-2.0000038,-103.00032,68.500114)"
         d="m 81,24.5 v 5 0.5 h 5 c 0,0 6e-6,-5.500001 0,-5.5 z" />
      <path
         id="path1165"
         style="opacity:0.12000002;fill:#ffffff;fill-opacity:1;fill-rule:evenodd"
         transform="translate(-6,-0.5)"
         d="m 65,10 1.2e-5,9.999998 c 0,0 8.999999,5e-6 8.999988,2e-6 h 1 c 0,-8.999997 1.3e-5,-10 -10,-10 z"
         inkscape:connector-curvature="0"
         sodipodi:nodetypes="ccccc" />
    </g>
  </g>
  <g
     id="normal-right"
     style="enable-background:new"
     transform="matrix(0,0.49999904,-0.49999904,0,30.74999,-4.9999345)">
    <path
       id="path1171"
       style="opacity:0.9;fill:#000000;fill-rule:evenodd"
       d="M 27,19.5 H 59 V 9.5 H 27 Z" />
    <g
       id="g1175"
       style="color:#000000">
      <path
         id="path1173"
         style="opacity:0.12;fill:#ffffff;fill-opacity:1"
         d="M 59,9.5001 H 27 l 2e-6,9.999899 31.999979,2.6e-5 z" />
    </g>
  </g>
  <g
     id="normal-bottom"
     style="enable-background:new"
     transform="matrix(0.49999904,0,0,-0.49999904,-8.4999309,34.249992)">
    <path
       id="path1179"
       style="opacity:0.9;fill:#000000;fill-rule:evenodd;stroke-width:0.49999905"
       transform="matrix(2.0000038,0,0,-2.0000038,-103.00034,68.500116)"
       d="m 65,24.5 v 5 0.5 h 16 v -0.5 -5 z" />
    <g
       id="g1183"
       style="color:#000000">
      <path
         id="path1181"
         style="opacity:0.12;fill:#ffffff;fill-opacity:1"
         d="M 59,9.5001 H 27 l -9e-6,9.9999 31.999977,2.3e-5 z" />
    </g>
  </g>
  <g
     id="normal-topleft"
     style="enable-background:new"
     transform="matrix(-0.49999904,0,0,0.49999904,68.49987,-1.4999405)">
    <g
       id="g1191"
       transform="translate(68,0.5)">
      <path
         id="path1187"
         style="opacity:0.9;fill:#000000;fill-rule:evenodd;stroke-width:0.49999905"
         transform="matrix(-2.0000038,0,0,2.0000038,189.00023,2.4998868)"
         d="m 60,3 v 5.5 h 5 V 3.5 3 Z" />
      <path
         id="path1189"
         style="opacity:0.12000002;fill:#ffffff;fill-opacity:1;fill-rule:evenodd"
         transform="translate(-6,-0.5)"
         d="m 65,10 3e-6,10.000001 c 0,0 9,0 8.999997,-1e-6 h 1 c 0,-9.000098 3e-6,-10 -10,-10 z"
         inkscape:connector-curvature="0"
         sodipodi:nodetypes="ccccc" />
    </g>
  </g>
  <g
     id="normal-bottomleft"
     style="enable-background:new"
     transform="matrix(-0.49999904,0,0,-0.49999904,68.49987,34.499991)">
    <g
       id="g1199"
       transform="translate(68,0.5)">
      <path
         id="path1195"
         style="opacity:0.9;fill:#000000;fill-rule:evenodd;stroke-width:0.49999905"
         transform="matrix(-2.0000038,0,0,-2.0000038,189.00023,68.500114)"
         d="m 60,24.5 c -10e-7,0 0,5.5 0,5.5 h 5 v -0.5 -5 z" />
      <path
         id="path1197"
         style="opacity:0.12000002;fill:#ffffff;fill-opacity:1;fill-rule:evenodd"
         transform="translate(-6,-0.5)"
         d="m 65,10 v 1 c 0,0 -9.4e-5,8.999999 -9e-6,9.000022 L 75,20 c 0,-8.999997 3e-6,-10 -10,-10 z"
         inkscape:connector-curvature="0"
         sodipodi:nodetypes="ccccc" />
    </g>
  </g>
  <g
     id="normal-left"
     style="enable-background:new"
     transform="matrix(0,0.49999904,0.49999904,0,-4.7499909,-4.9999335)">
    <path
       id="path1203"
       style="opacity:0.9;fill:#000000;fill-rule:evenodd"
       d="M 27,19.5 H 59 V 9.5 H 27 Z" />
    <g
       id="g1207"
       style="color:#000000">
      <path
         id="path1205"
         style="opacity:0.12;fill:#ffffff;fill-opacity:1"
         d="M 59,9.5001 H 27 V 19.5 l 32.000002,9.7e-5 z" />
    </g>
  </g>
  <g
     id="normal-center"
     transform="translate(-60)">
    <path
       id="path1211"
       style="opacity:0.9;fill:#000000;fill-rule:evenodd;stroke-width:0.49999905;enable-background:new"
       d="M 65.000001,8.4999998 V 24.499971 h 15.99997 V 8.4999998 Z" />
    <path
       id="path1213"
       style="opacity:0.12;fill:#ffffff;fill-opacity:1;fill-rule:evenodd;stroke-width:0.49999905;enable-background:new"
       d="M 65.000001,8.4999998 V 24.499971 h 15.99997 V 8.4999998 Z" />
  </g>
</svg>
