<svg xmlns="http://www.w3.org/2000/svg" id="svg69" width="129" height="85" version="1">
 <rect id="header-center" style="opacity:0.23999999;fill:#ffffff;fill-opacity:1;stroke-width:1" width="50" height="50" x="7" y="28"/>
 <g id="header-topleft" transform="matrix(1,0,0,1.0000014,-183.00001,-231.00018)">
  <path id="path3" style="opacity:0.23999999;fill:#ffffff;fill-opacity:1" d="m 190.00001,251.99982 v 7 h -7 c -1e-5,-5 1.99999,-7 7,-6.99999 z"/>
 </g>
 <g id="header-left" transform="translate(-183.00002,-230.99982)">
  <path id="path6" style="opacity:0.23999999;fill:#ffffff;fill-opacity:1" d="m 183.00002,258.99981 v 50 l 7,10e-6 v -50 z"/>
 </g>
 <g id="header-right" transform="translate(-183,-230.99982)">
  <path id="path9" style="opacity:0.23999999;fill:#ffffff;fill-opacity:1" d="m 247,258.99982 v 50 l -7,10e-6 v -50 z"/>
 </g>
 <g id="header-topright" transform="translate(-183,-230.99982)">
  <path id="path12" style="opacity:0.23999999;fill:#ffffff;fill-opacity:1" d="m 240,251.99982 v 7 h 7 c -3e-5,-5 -2.00003,-7 -7,-7 z"/>
 </g>
 <g id="header-top" transform="translate(-182.99999,-230.99982)">
  <path id="path15" style="opacity:0.23999999;fill:#ffffff;fill-opacity:1" d="M 189.99998,251.99982 H 240 v 7 h -50.00001 z"/>
 </g>
 <rect id="hint-top-margin" style="fill:#ff0000;stroke-width:1" width="4" height="7" x="29" y="21"/>
 <rect id="hint-left-margin" style="fill:#ff0000;stroke-width:1" width="7" height="4" x="7" y="52"/>
 <rect id="hint-right-margin" style="fill:#ff0000;stroke-width:1" width="7" height="4" x="50" y="52"/>
 <rect id="hint-stretch-borders" style="fill:#ff0000" width="5" height="5" x="0" y="0"/>
 <g id="header-bottomleft" transform="matrix(0.99999857,0,0,6.998746,-9.2999625e-6,-509.89682)">
  <path id="path22" style="opacity:0.23999999;fill:#ffffff;fill-opacity:1;stroke-width:1.13379109" transform="matrix(2.3333366,0,0,0.33339306,9.503675e-6,57.995649)" d="m 0,78 v 2 1 h 3 v -1 -2 z"/>
 </g>
 <g id="header-bottom" transform="matrix(0.99999958,0,0,6.999321,3.1000375e-6,-509.93907)">
  <path id="path27" style="opacity:0.23999999;fill:#ffffff;fill-opacity:1;stroke-width:1.69697368" transform="matrix(1.0416671,0,0,0.33336567,3.8749985,57.996922)" d="m 3,78 v 2 1 h 48 v -1 -2 z"/>
 </g>
 <g id="header-bottomright" transform="matrix(1,0,0,6.9987403,-9.1999625e-6,-509.89332)">
  <path id="path32" style="opacity:0.23999999;fill:#ffffff;fill-opacity:1;stroke-width:1.13379133" transform="matrix(2.3333333,0,0,0.33339333,-61.999989,57.995197)" d="m 51,78 v 2 1 h 3 v -1 -2 z"/>
 </g>
 <rect id="hint-bottom-margin" style="fill:#ff0000;stroke-width:1" width="4" height="7" x="29" y="71"/>
 <rect id="footer-center" style="opacity:0.23999999;fill:#ffffff;fill-opacity:1;stroke-width:1" width="50" height="50" x="75" y="28"/>
 <g id="footer-bottomleft" transform="matrix(0.99999855,0,0,1,-114.99974,-173.99982)">
  <path id="path39" style="opacity:0.23999999;fill:#ffffff;fill-opacity:1" d="m 190.00001,251.99982 v 7 c -5.00002,0 -7.00002,-2 -7.00001,-6.99899 0,0 7,0 7.00001,-0.001 z"/>
 </g>
 <g id="footer-left" transform="translate(-115.00003,-230.99982)">
  <path id="path42" style="opacity:0.23999999;fill:#ffffff;fill-opacity:1" d="m 183.00002,258.99981 v 50 l 7,10e-6 v -50 z"/>
 </g>
 <g id="footer-right" transform="translate(-115.00001,-230.99982)">
  <path id="path45" style="opacity:0.23999999;fill:#ffffff;fill-opacity:1" d="m 247,258.99982 v 50 l -7,10e-6 v -50 z"/>
 </g>
 <g id="footer-bottomright" transform="translate(-115.00001,-173.99982)">
  <path id="path48" style="opacity:0.23999999;fill:#ffffff;fill-opacity:1" d="m 240,251.99982 v 7 c 4.99997,0 6.99997,-2 7,-6.99899 z"/>
 </g>
 <g id="footer-bottom" transform="matrix(1.0416667,0,0,2.3333333,-122.91666,-519.3329)">
  <path id="path51" style="opacity:0.23999999;fill:#ffffff;fill-opacity:1;stroke-width:0.64142686" d="m 189.99998,255.99982 h 48 v 3 h -47.99999 z"/>
 </g>
 <g id="footer-topleft" transform="matrix(0.99999859,0,0,-0.99997901,68.000033,105.99719)">
  <path id="path54" style="opacity:0.23999999;fill:#ffffff;fill-opacity:1;stroke-width:0.42856663" transform="matrix(2.3333366,0,0,-2.3333823,-151.66692,148.0003)" d="m 65,27 v 1 2 h 3 v -2 -1 z"/>
 </g>
 <g id="footer-top" transform="matrix(0.99999958,0,0,-1.0000206,68.000025,105.9991)">
  <path id="path59" style="opacity:0.23999999;fill:#ffffff;fill-opacity:1;stroke-width:0.64143348" transform="matrix(1.0416671,0,0,-2.3332853,-63.833393,147.99606)" d="m 68,27 v 1 2 h 48 v -2 -1 z"/>
 </g>
 <g id="footer-topright" transform="matrix(1,0,0,-0.99997914,68.000029,105.9972)">
  <path id="path64" style="opacity:0.23999999;fill:#ffffff;fill-opacity:1;stroke-width:0.42856696" transform="matrix(2.3333333,0,0,-2.333382,-213.6667,148.00029)" d="m 116,27 v 1 2 h 3 v -2 -1 z"/>
 </g>
</svg>
