<svg xmlns="http://www.w3.org/2000/svg" id="svg114" width="88" height="86" version="1">
 <rect id="hint-tile-center" style="opacity:1;fill:#ff0000;stroke-width:1" width="2" height="2" x="41" y="10" rx="0" ry="2"/>
 <g id="vertical-slider-shadow" style="opacity:0.00100002" transform="matrix(0.58333333,0,0,0.58333333,-0.99999968,-22.166666)">
  <rect id="rect16" style="opacity:0.00100002" width="24" height="24" x="96" y="98"/>
 </g>
 <g id="groove-topleft" style="fill:#6c6e70;fill-opacity:1;fill-rule:evenodd;stroke:none" transform="matrix(0.17777778,0,0,0.17777778,3.8888905,3.3330464)">
  <path id="path38" style="color:#000000;font-style:normal;font-variant:normal;font-weight:normal;font-stretch:normal;font-size:medium;line-height:normal;font-family:sans-serif;font-variant-ligatures:normal;font-variant-position:normal;font-variant-caps:normal;font-variant-numeric:normal;font-variant-alternates:normal;font-feature-settings:normal;text-indent:0;text-align:start;text-decoration:none;text-decoration-line:none;text-decoration-style:solid;text-decoration-color:#000000;letter-spacing:normal;word-spacing:normal;text-transform:none;writing-mode:lr-tb;direction:ltr;text-orientation:mixed;dominant-baseline:auto;baseline-shift:baseline;text-anchor:start;white-space:normal;shape-padding:0;clip-rule:nonzero;display:inline;overflow:visible;visibility:visible;opacity:0.24;isolation:auto;mix-blend-mode:normal;color-interpolation:sRGB;color-interpolation-filters:linearRGB;solid-color:#000000;solid-opacity:1;vector-effect:none;fill:#ffffff;fill-opacity:1;fill-rule:evenodd;stroke:none;stroke-width:1.33333337;stroke-linecap:butt;stroke-linejoin:miter;stroke-miterlimit:4;stroke-dasharray:none;stroke-dashoffset:0;stroke-opacity:1;color-rendering:auto;image-rendering:auto;shape-rendering:auto;text-rendering:auto;enable-background:accumulate" transform="matrix(5.6249999,0,0,5.6249999,-21.875009,-18.748386)" d="M 9 10 C 7.9030267 9.9999867 6.9999933 10.90302 7 12 L 8 12 L 9 12 L 9 11 L 9 10 z"/>
  <path id="path7079-6" style="color:#000000;line-height:normal;font-family:Sans;text-indent:0;text-align:start;text-transform:none;opacity:0;fill:#000000;fill-opacity:1" d="m 28.75,41.2516 c -4.125,-5.1e-5 -7.50003,3.37497 -7.5,7.5 h 2.5 c 0,-3.125 1.875,-5 5,-5 z"/>
 </g>
 <path id="groove-center" style="opacity:0.24;fill:#ffffff;fill-opacity:1;fill-rule:evenodd;stroke:none;stroke-width:0.03125" d="m 9.000005,12.000001 v 1 h 1 v -1 z"/>
 <path id="groove-highlight-left" style="fill:#903bda;fill-opacity:1;fill-rule:evenodd;stroke:none;stroke-width:0.09058217" d="M 15,12.000005 V 13 h -2 v -1 z"/>
 <path id="groove-highlight-bottomleft" style="fill:#903bda;fill-opacity:1;fill-rule:evenodd;stroke:none;stroke-width:0.26666659" d="m 15,15 c -1.066669,0 -2,-0.93333 -2,-2 h 2 z"/>
 <path id="groove-highlight-topleft" style="fill:#903bda;fill-opacity:1;fill-rule:evenodd;stroke:none;stroke-width:0.26666662" d="m 13,12 c 0,-1.06667 0.933331,-2 2,-2 v 2 z"/>
 <path id="groove-highlight-bottom" style="fill:#903bda;fill-opacity:1;fill-rule:evenodd;stroke:none;stroke-width:0.09058215" d="M 15.000005,13 H 16 v 2 h -1 z"/>
 <path id="groove-highlight-top" style="fill:#903bda;fill-opacity:1;fill-rule:evenodd;stroke:none;stroke-width:0.09058218" d="M 15.999995,12 H 15 v -2 h 1 z"/>
 <path id="groove-highlight-center" style="fill:#903bda;fill-opacity:1;fill-rule:evenodd;stroke:none;stroke-width:0.03076922" d="M 15,12.999999 V 12 h 1 v 0.999999 z"/>
 <path id="groove-highlight-right" style="fill:#903bda;fill-opacity:1;fill-rule:evenodd;stroke:none;stroke-width:0.09058217" d="m 16,12 v 0.999995 h 2 v -1 z"/>
 <path id="groove-highlight-bottomright" style="fill:#903bda;fill-opacity:1;fill-rule:evenodd;stroke:none;stroke-width:0.26666659" d="m 16,15 c 1.06667,0 2,-0.93333 2,-2 h -2 z"/>
 <path id="groove-highlight-topright" style="fill:#903bda;fill-opacity:1;fill-rule:evenodd;stroke:none;stroke-width:0.26666659" d="m 18,12 c 0,-1.06667 -0.93333,-2 -2,-2 v 2 z"/>
 <g id="groove-top" transform="matrix(0.5,0,0,0.66666667,-119,-180)">
  <path id="path53" style="opacity:0.24;fill:#ffffff;fill-opacity:1;fill-rule:evenodd;stroke:none;stroke-width:0.05229772" transform="matrix(2,0,0,1.5,238,270)" d="M 9 10 L 9 11 L 9 12 L 10 12 L 10 11 L 10 10 L 9 10 z"/>
 </g>
 <g id="groove-topright" style="fill:#6c6e70;fill-opacity:1;fill-rule:evenodd;stroke:none" transform="matrix(0,0.17777778,-0.17777778,0,18.666951,6.88889)">
  <path id="path58" style="color:#000000;font-style:normal;font-variant:normal;font-weight:normal;font-stretch:normal;font-size:medium;line-height:normal;font-family:sans-serif;font-variant-ligatures:normal;font-variant-position:normal;font-variant-caps:normal;font-variant-numeric:normal;font-variant-alternates:normal;font-feature-settings:normal;text-indent:0;text-align:start;text-decoration:none;text-decoration-line:none;text-decoration-style:solid;text-decoration-color:#000000;letter-spacing:normal;word-spacing:normal;text-transform:none;writing-mode:lr-tb;direction:ltr;text-orientation:mixed;dominant-baseline:auto;baseline-shift:baseline;text-anchor:start;white-space:normal;shape-padding:0;clip-rule:nonzero;display:inline;overflow:visible;visibility:visible;opacity:0.24;isolation:auto;mix-blend-mode:normal;color-interpolation:sRGB;color-interpolation-filters:linearRGB;solid-color:#000000;solid-opacity:1;vector-effect:none;fill:#ffffff;fill-opacity:1;fill-rule:evenodd;stroke:none;stroke-width:1.33333337;stroke-linecap:butt;stroke-linejoin:miter;stroke-miterlimit:4;stroke-dasharray:none;stroke-dashoffset:0;stroke-opacity:1;color-rendering:auto;image-rendering:auto;shape-rendering:auto;text-rendering:auto;enable-background:accumulate" transform="matrix(0,-5.6249999,5.6249999,0,-38.750006,105.0016)" d="M 10 10 L 10 11 L 10 12 L 11 12 L 12 12 C 12.000013 10.903027 11.09698 9.9999933 10 10 z"/>
  <path id="path62" style="color:#000000;line-height:normal;font-family:Sans;text-indent:0;text-align:start;text-transform:none;opacity:0;fill:#000000;fill-opacity:1" d="m 28.75,41.2516 c -4.125,-5.1e-5 -7.50003,3.37497 -7.5,7.5 h 2.5 c 0,-3.125 1.875,-5 5,-5 z"/>
 </g>
 <g id="groove-bottomright" style="fill:#6c6e70;fill-opacity:1;fill-rule:evenodd;stroke:none" transform="matrix(-0.17777778,0,0,-0.17777778,15.111116,21.666952)">
  <path id="path65" style="color:#000000;font-style:normal;font-variant:normal;font-weight:normal;font-stretch:normal;font-size:medium;line-height:normal;font-family:sans-serif;font-variant-ligatures:normal;font-variant-position:normal;font-variant-caps:normal;font-variant-numeric:normal;font-variant-alternates:normal;font-feature-settings:normal;text-indent:0;text-align:start;text-decoration:none;text-decoration-line:none;text-decoration-style:solid;text-decoration-color:#000000;letter-spacing:normal;word-spacing:normal;text-transform:none;writing-mode:lr-tb;direction:ltr;text-orientation:mixed;dominant-baseline:auto;baseline-shift:baseline;text-anchor:start;white-space:normal;shape-padding:0;clip-rule:nonzero;display:inline;overflow:visible;visibility:visible;opacity:0.24;isolation:auto;mix-blend-mode:normal;color-interpolation:sRGB;color-interpolation-filters:linearRGB;solid-color:#000000;solid-opacity:1;vector-effect:none;fill:#ffffff;fill-opacity:1;fill-rule:evenodd;stroke:none;stroke-width:1.33333337;stroke-linecap:butt;stroke-linejoin:miter;stroke-miterlimit:4;stroke-dasharray:none;stroke-dashoffset:0;stroke-opacity:1;color-rendering:auto;image-rendering:auto;shape-rendering:auto;text-rendering:auto;enable-background:accumulate" transform="matrix(-5.6249999,0,0,-5.6249999,85.000026,121.8766)" d="M 10 13 L 10 14 L 10 15 C 11.096973 15.000013 12.000007 14.09698 12 13 L 11 13 L 10 13 z"/>
  <path id="path69" style="color:#000000;line-height:normal;font-family:Sans;text-indent:0;text-align:start;text-transform:none;opacity:0;fill:#000000;fill-opacity:1" d="m 28.75,41.2516 c -4.125,-5.1e-5 -7.50003,3.37497 -7.5,7.5 h 2.5 c 0,-3.125 1.875,-5 5,-5 z"/>
 </g>
 <g id="groove-bottomleft" style="fill:#6c6e70;fill-opacity:1;fill-rule:evenodd;stroke:none" transform="matrix(0.17777778,0,0,-0.17777778,3.8888898,21.666951)">
  <path id="path72" style="color:#000000;font-style:normal;font-variant:normal;font-weight:normal;font-stretch:normal;font-size:medium;line-height:normal;font-family:sans-serif;font-variant-ligatures:normal;font-variant-position:normal;font-variant-caps:normal;font-variant-numeric:normal;font-variant-alternates:normal;font-feature-settings:normal;text-indent:0;text-align:start;text-decoration:none;text-decoration-line:none;text-decoration-style:solid;text-decoration-color:#000000;letter-spacing:normal;word-spacing:normal;text-transform:none;writing-mode:lr-tb;direction:ltr;text-orientation:mixed;dominant-baseline:auto;baseline-shift:baseline;text-anchor:start;white-space:normal;shape-padding:0;clip-rule:nonzero;display:inline;overflow:visible;visibility:visible;opacity:0.24;isolation:auto;mix-blend-mode:normal;color-interpolation:sRGB;color-interpolation-filters:linearRGB;solid-color:#000000;solid-opacity:1;vector-effect:none;fill:#ffffff;fill-opacity:1;fill-rule:evenodd;stroke:none;stroke-width:1.33333337;stroke-linecap:butt;stroke-linejoin:miter;stroke-miterlimit:4;stroke-dasharray:none;stroke-dashoffset:0;stroke-opacity:1;color-rendering:auto;image-rendering:auto;shape-rendering:auto;text-rendering:auto;enable-background:accumulate" transform="matrix(5.6249999,0,0,-5.6249999,-21.875005,121.8766)" d="M 7 13 C 6.9999933 14.09698 7.9030267 15.000013 9 15 L 9 14 L 9 13 L 8 13 L 7 13 z"/>
  <path id="path76" style="color:#000000;line-height:normal;font-family:Sans;text-indent:0;text-align:start;text-transform:none;opacity:0;fill:#000000;fill-opacity:1" d="m 28.75,41.2516 c -4.125,-5.1e-5 -7.50003,3.37497 -7.5,7.5 h 2.5 c 0,-3.125 1.875,-5 5,-5 z"/>
 </g>
 <g id="groove-right" transform="matrix(0,0.5,-0.66666667,0,202,-116)">
  <path id="path79" style="opacity:0.24;fill:#ffffff;fill-opacity:1;fill-rule:evenodd;stroke:none;stroke-width:0.05229772" transform="matrix(0,-1.5,2,0,232,303)" d="M 10 12 L 10 13 L 11 13 L 12 13 L 12 12 L 11 12 L 10 12 z"/>
 </g>
 <g id="groove-left" transform="matrix(0,0.5,0.66666667,0,-183,-116)">
  <path id="path84" style="opacity:0.24;fill:#ffffff;fill-opacity:1;fill-rule:evenodd;stroke:none;stroke-width:0.05229772" transform="matrix(0,1.5,2,0,232,274.5)" d="M 7 12 L 7 13 L 8 13 L 9 13 L 9 12 L 8 12 L 7 12 z"/>
 </g>
 <g id="groove-bottom" transform="matrix(0.5,0,0,-0.66666667,-119,205)">
  <path id="path89" style="opacity:0.24;fill:#ffffff;fill-opacity:1;fill-rule:evenodd;stroke:none;stroke-width:0.05229772" transform="matrix(2,0,0,-1.5,238,307.5)" d="M 9 13 L 9 14 L 9 15 L 10 15 L 10 14 L 10 13 L 9 13 z"/>
 </g>
 <circle id="hint-handle-size" style="opacity:1;fill:#ff0000;fill-opacity:1;fill-rule:nonzero;stroke:none;stroke-width:1.75;stroke-linecap:round;stroke-linejoin:round;stroke-miterlimit:4;stroke-dasharray:none;stroke-opacity:1" cx="54" cy="13" r="7"/>
 <circle id="vertical-slider-handle" style="opacity:1;fill:#903bda;fill-opacity:1;stroke:none;stroke-width:2.27843142;stroke-linecap:round;stroke-linejoin:round;stroke-miterlimit:4;stroke-dasharray:none;stroke-opacity:1" cx="10" cy="42" r="7"/>
 <circle id="vertical-slider-hover" style="opacity:1;fill:#9d52de;fill-opacity:1;stroke:none;stroke-width:2.27843142;stroke-linecap:round;stroke-linejoin:round;stroke-miterlimit:4;stroke-dasharray:none;stroke-opacity:1" cx="27" cy="42" r="7"/>
 <circle id="vertical-slider-focus" style="opacity:1;fill:#9d52de;fill-opacity:1;stroke:none;stroke-width:2.27843142;stroke-linecap:round;stroke-linejoin:round;stroke-miterlimit:4;stroke-dasharray:none;stroke-opacity:1" cx="44" cy="42" r="7"/>
 <g id="horizontal-slider-shadow" style="opacity:0.00100002" transform="matrix(0.58333333,0,0,0.58333333,-0.99999968,-5.1666663)">
  <rect id="rect945" style="opacity:0.00100002" width="24" height="24" x="96" y="98"/>
 </g>
 <circle id="horizontal-slider-handle" style="opacity:1;fill:#903bda;fill-opacity:1;stroke:none;stroke-width:2.27843142;stroke-linecap:round;stroke-linejoin:round;stroke-miterlimit:4;stroke-dasharray:none;stroke-opacity:1" cx="10" cy="59" r="7"/>
 <circle id="horizontal-slider-hover" style="opacity:1;fill:#9d52de;fill-opacity:1;stroke:none;stroke-width:2.27843142;stroke-linecap:round;stroke-linejoin:round;stroke-miterlimit:4;stroke-dasharray:none;stroke-opacity:1" cx="27" cy="59" r="7"/>
 <circle id="horizontal-slider-focus" style="opacity:1;fill:#9d52de;fill-opacity:1;stroke:none;stroke-width:2.27843142;stroke-linecap:round;stroke-linejoin:round;stroke-miterlimit:4;stroke-dasharray:none;stroke-opacity:1" cx="44" cy="59" r="7"/>
</svg>
