<svg xmlns="http://www.w3.org/2000/svg" xmlns:xlink="http://www.w3.org/1999/xlink" id="svg156" width="112" height="40" version="1">
 <defs id="defs7082">
  <radialGradient id="radialGradient2269" cx="79" cy="757" r="2.5" fx="79" fy="757" gradientTransform="matrix(0,2,-2,0,1575,599)" gradientUnits="userSpaceOnUse" xlink:href="#linearGradient2145"/>
  <linearGradient id="linearGradient2145">
   <stop id="stop3" style="stop-color:#000000;stop-opacity:1" offset="0"/>
   <stop id="stop5" style="stop-color:#000000;stop-opacity:0" offset="1"/>
  </linearGradient>
  <radialGradient id="radialGradient2260" cx="71" cy="757" r="2.5" fx="71" fy="757" gradientTransform="matrix(-2,0,0,-2,195,2271)" gradientUnits="userSpaceOnUse" xlink:href="#linearGradient2145"/>
  <radialGradient id="radialGradient2301" cx="79" cy="749" r="2.5" fx="79" fy="749" gradientTransform="matrix(2,0,0,2,-97,-749)" gradientUnits="userSpaceOnUse" xlink:href="#linearGradient2145"/>
  <radialGradient id="radialGradient2303" cx="71" cy="749" r="2.5" fx="71" fy="749" gradientTransform="matrix(0,-2,2,0,-1445,891)" gradientUnits="userSpaceOnUse" xlink:href="#linearGradient2145"/>
  <linearGradient id="linearGradient2292" x1="71" x2="66" y1="751" y2="751" gradientTransform="translate(-18)" gradientUnits="userSpaceOnUse" xlink:href="#linearGradient2145"/>
  <linearGradient id="linearGradient2290" x1="79" x2="84" y1="753" y2="753" gradientTransform="translate(-18)" gradientUnits="userSpaceOnUse" xlink:href="#linearGradient2145"/>
  <linearGradient id="linearGradient2280" x1="73" x2="73" y1="757" y2="762" gradientTransform="translate(-18)" gradientUnits="userSpaceOnUse" xlink:href="#linearGradient2145"/>
  <linearGradient id="linearGradient2288" x1="71" x2="71" y1="749" y2="744" gradientTransform="translate(-18)" gradientUnits="userSpaceOnUse" xlink:href="#linearGradient2145"/>
  <linearGradient id="linearGradient932" x1="71" x2="71" y1="749" y2="744" gradientTransform="translate(-18)" gradientUnits="userSpaceOnUse" xlink:href="#linearGradient2145"/>
  <linearGradient id="linearGradient934" x1="73" x2="73" y1="757" y2="762" gradientTransform="translate(-18)" gradientUnits="userSpaceOnUse" xlink:href="#linearGradient2145"/>
  <linearGradient id="linearGradient936" x1="79" x2="84" y1="753" y2="753" gradientTransform="translate(-18)" gradientUnits="userSpaceOnUse" xlink:href="#linearGradient2145"/>
  <linearGradient id="linearGradient938" x1="71" x2="66" y1="751" y2="751" gradientTransform="translate(-18)" gradientUnits="userSpaceOnUse" xlink:href="#linearGradient2145"/>
  <radialGradient id="radialGradient940" cx="71" cy="749" r="2.5" fx="71" fy="749" gradientTransform="matrix(0,-2,2,0,-1445,891)" gradientUnits="userSpaceOnUse" xlink:href="#linearGradient2145"/>
  <radialGradient id="radialGradient942" cx="79" cy="749" r="2.5" fx="79" fy="749" gradientTransform="matrix(2,0,0,2,-97,-749)" gradientUnits="userSpaceOnUse" xlink:href="#linearGradient2145"/>
  <radialGradient id="radialGradient944" cx="71" cy="757" r="2.5" fx="71" fy="757" gradientTransform="matrix(-2,0,0,-2,195,2271)" gradientUnits="userSpaceOnUse" xlink:href="#linearGradient2145"/>
  <radialGradient id="radialGradient946" cx="79" cy="757" r="2.5" fx="79" fy="757" gradientTransform="matrix(0,2,-2,0,1575,599)" gradientUnits="userSpaceOnUse" xlink:href="#linearGradient2145"/>
  <linearGradient id="linearGradient998" x1="71" x2="71" y1="749" y2="744" gradientTransform="translate(-18)" gradientUnits="userSpaceOnUse" xlink:href="#linearGradient2145"/>
  <linearGradient id="linearGradient1000" x1="73" x2="73" y1="757" y2="762" gradientTransform="translate(-18)" gradientUnits="userSpaceOnUse" xlink:href="#linearGradient2145"/>
  <linearGradient id="linearGradient1002" x1="79" x2="84" y1="753" y2="753" gradientTransform="translate(-18)" gradientUnits="userSpaceOnUse" xlink:href="#linearGradient2145"/>
  <linearGradient id="linearGradient1004" x1="71" x2="66" y1="751" y2="751" gradientTransform="translate(-18)" gradientUnits="userSpaceOnUse" xlink:href="#linearGradient2145"/>
  <radialGradient id="radialGradient1006" cx="71" cy="749" r="2.5" fx="71" fy="749" gradientTransform="matrix(0,-2,2,0,-1445,891)" gradientUnits="userSpaceOnUse" xlink:href="#linearGradient2145"/>
  <radialGradient id="radialGradient1008" cx="79" cy="749" r="2.5" fx="79" fy="749" gradientTransform="matrix(2,0,0,2,-97,-749)" gradientUnits="userSpaceOnUse" xlink:href="#linearGradient2145"/>
  <radialGradient id="radialGradient1010" cx="71" cy="757" r="2.5" fx="71" fy="757" gradientTransform="matrix(-2,0,0,-2,195,2271)" gradientUnits="userSpaceOnUse" xlink:href="#linearGradient2145"/>
  <radialGradient id="radialGradient1012" cx="79" cy="757" r="2.5" fx="79" fy="757" gradientTransform="matrix(0,2,-2,0,1575,599)" gradientUnits="userSpaceOnUse" xlink:href="#linearGradient2145"/>
 </defs>
 <rect id="hint-stretch-borders" style="opacity:1;fill:#ff0000" width="4" height="4" x="0" y="0"/>
 <g id="selected-top" transform="matrix(2,0,0,2,-132,-1484)">
  <path id="path33" style="fill:#000000;fill-opacity:1;fill-rule:evenodd;opacity:0.001" transform="translate(18)" d="m 53,744 v 1 h 8 v -1 z"/>
  <path id="path35" style="opacity:0.9;fill:#903bda;fill-opacity:1;fill-rule:evenodd" d="m 71,745 h 8 v 4 h -8 z"/>
 </g>
 <g id="selected-bottom" transform="matrix(2,0,0,2,-132,-1484)">
  <path id="path38" style="fill:#000000;fill-opacity:1;fill-rule:evenodd;opacity:0.001" transform="translate(18)" d="m 53,761 v 1 h 8 v -1 z"/>
  <path id="path40" style="opacity:0.9;fill:#903bda;fill-opacity:1;fill-rule:evenodd" d="m 71,757 h 8 v 4 h -8 z"/>
 </g>
 <path id="selected-center" style="opacity:0.9;fill:#903bda;fill-opacity:1;fill-rule:evenodd;stroke-width:2" d="m 10.000005,14.000014 h 16 v 16 h -16 z"/>
 <g id="selected-right" transform="matrix(2,0,0,2,-132,-1484)">
  <path id="path44" style="fill:#000000;fill-opacity:1;fill-rule:evenodd;opacity:0.001" transform="translate(18)" d="m 65,749 v 8 h 1 v -8 z"/>
  <path id="path46" style="opacity:0.9;fill:#903bda;fill-opacity:1;fill-rule:evenodd" d="m 79,749 h 4 v 8 h -4 z"/>
 </g>
 <g id="selected-left" transform="matrix(2,0,0,2,-132,-1484)">
  <path id="path49" style="fill:#000000;fill-opacity:1;fill-rule:evenodd;opacity:0.001" transform="translate(18)" d="m 48,749 v 8 h 1 v -8 z"/>
  <path id="path51" style="opacity:0.9;fill:#903bda;fill-opacity:1;fill-rule:evenodd" d="m 67,749 h 4 v 8 h -4 z"/>
 </g>
 <g id="selected-topleft" transform="matrix(2,0,0,2,-132,-1484)">
  <path id="path54" style="fill:#000000;fill-opacity:1;fill-rule:evenodd;paint-order:normal;opacity:0.001" transform="translate(18)" d="m 48,744 v 5 h 1 c 0,0 0,-4 4,-4 v -1 z"/>
  <path id="path56" style="opacity:0.9;fill:#903bda;fill-opacity:1;fill-rule:evenodd;paint-order:normal" d="m 71,745 v 4 h -4 c 0,0 0,-4 4,-4 z"/>
 </g>
 <g id="selected-topright" transform="matrix(2,0,0,2,-132,-1484)">
  <path id="path59" style="fill:#000000;fill-opacity:1;fill-rule:evenodd;paint-order:normal;opacity:0.001" transform="translate(18)" d="m 61,744 v 1 c 4,0 4,4 4,4 h 1 v -5 z"/>
  <path id="path61" style="opacity:0.9;fill:#903bda;fill-opacity:1;fill-rule:evenodd;paint-order:normal" d="m 79,745 c 4,0 4,4 4,4 h -4 z"/>
 </g>
 <g id="selected-bottomleft" transform="matrix(2,0,0,2,-132,-1484)">
  <path id="path64" style="fill:#000000;fill-opacity:1;fill-rule:evenodd;paint-order:normal;opacity:0.001" transform="translate(18)" d="m 48,757 v 5 h 5 v -1 c 0,0 -4,0 -4,-4 z"/>
  <path id="path66" style="opacity:0.9;fill:#903bda;fill-opacity:1;fill-rule:evenodd;paint-order:normal" d="m 67,757 h 4 v 4 c 0,0 -4,0 -4,-4 z"/>
 </g>
 <g id="selected-bottomright" transform="matrix(2,0,0,2,-132,-1484)">
  <path id="path69" style="fill:#000000;fill-opacity:1;fill-rule:evenodd;paint-order:normal;opacity:0.001" transform="translate(18)" d="m 65,757 c 0,0 0.01477,4 -4,4 v 1 h 5 v -5 z"/>
  <path id="path71" style="opacity:0.9;fill:#903bda;fill-opacity:1;fill-rule:evenodd;paint-order:normal" d="m 79,757 h 4 c 0,0 0.01477,4 -4,4 z"/>
 </g>
 <g id="hover-top" transform="matrix(2,0,0,2,-94,-1484)">
  <path id="path74" style="fill:#000000;fill-opacity:1;fill-rule:evenodd;opacity:0.001" transform="translate(18)" d="m 53,744 v 1 h 8 v -1 z"/>
  <path id="path76" style="opacity:0.9;fill:#903bda;fill-opacity:1;fill-rule:evenodd" d="m 71,745 h 8 v 4 h -8 z"/>
 </g>
 <g id="hover-bottom" transform="matrix(2,0,0,2,-94,-1484)">
  <path id="path79" style="fill:#000000;fill-opacity:1;fill-rule:evenodd;opacity:0.001" transform="translate(18)" d="m 53,761 v 1 h 8 v -1 z"/>
  <path id="path81" style="opacity:0.9;fill:#903bda;fill-opacity:1;fill-rule:evenodd" d="m 71,757 h 8 v 4 h -8 z"/>
 </g>
 <path id="hover-center" style="opacity:0.9;fill:#903bda;fill-opacity:1;fill-rule:evenodd;stroke-width:2" d="m 48.000003,14.000071 h 16 v 16 h -16 z"/>
 <g id="hover-right" transform="matrix(2,0,0,2,-94,-1484)">
  <path id="path85" style="fill:#000000;fill-opacity:1;fill-rule:evenodd;opacity:0.001" transform="translate(18)" d="m 65,749 v 8 h 1 v -8 z"/>
  <path id="path87" style="opacity:0.9;fill:#903bda;fill-opacity:1;fill-rule:evenodd" d="m 79,749 h 4 v 8 h -4 z"/>
 </g>
 <g id="hover-left" transform="matrix(2,0,0,2,-94,-1484)">
  <path id="path90" style="fill:#000000;fill-opacity:1;fill-rule:evenodd;opacity:0.001" transform="translate(18)" d="m 48,749 v 8 h 1 v -8 z"/>
  <path id="path92" style="opacity:0.9;fill:#903bda;fill-opacity:1;fill-rule:evenodd" d="m 67,749 h 4 v 8 h -4 z"/>
 </g>
 <g id="hover-topleft" transform="matrix(2,0,0,2,-94,-1484)">
  <path id="path95" style="fill:#000000;fill-opacity:1;fill-rule:evenodd;paint-order:normal;opacity:0.001" transform="translate(18)" d="m 48,744 v 5 h 1 c 0,0 0,-4 4,-4 v -1 z"/>
  <path id="path97" style="opacity:0.9;fill:#903bda;fill-opacity:1;fill-rule:evenodd;paint-order:normal" d="m 71,745 v 4 h -4 c 0,0 0,-4 4,-4 z"/>
 </g>
 <g id="hover-topright" transform="matrix(2,0,0,2,-94,-1484)">
  <path id="path100" style="fill:#000000;fill-opacity:1;fill-rule:evenodd;paint-order:normal;opacity:0.001" transform="translate(18)" d="m 61,744 v 1 c 4,0 4,4 4,4 h 1 v -5 z"/>
  <path id="path102" style="opacity:0.9;fill:#903bda;fill-opacity:1;fill-rule:evenodd;paint-order:normal" d="m 79,745 c 4,0 4,4 4,4 h -4 z"/>
 </g>
 <g id="hover-bottomleft" transform="matrix(2,0,0,2,-94,-1484)">
  <path id="path105" style="fill:#000000;fill-opacity:1;fill-rule:evenodd;paint-order:normal;opacity:0.001" transform="translate(18)" d="m 48,757 v 5 h 5 v -1 c 0,0 -4,0 -4,-4 z"/>
  <path id="path107" style="opacity:0.9;fill:#903bda;fill-opacity:1;fill-rule:evenodd;paint-order:normal" d="m 67,757 h 4 v 4 c 0,0 -4,0 -4,-4 z"/>
 </g>
 <g id="hover-bottomright" transform="matrix(2,0,0,2,-94,-1484)">
  <path id="path110" style="fill:#000000;fill-opacity:1;fill-rule:evenodd;paint-order:normal;opacity:0.001" transform="translate(18)" d="m 65,757 c 0,0 0.01477,4 -4,4 v 1 h 5 v -5 z"/>
  <path id="path112" style="opacity:0.9;fill:#903bda;fill-opacity:1;fill-rule:evenodd;paint-order:normal" d="m 79,757 h 4 c 0,0 0.01477,4 -4,4 z"/>
 </g>
 <g id="selected_hover-top" transform="matrix(2,0,0,2,-56,-1484)">
  <path id="path115" style="fill:#000000;fill-opacity:1;fill-rule:evenodd;opacity:0.001" transform="translate(18)" d="m 53,744 v 1 h 8 v -1 z"/>
  <path id="path117" style="opacity:0.9;fill:#903bda;fill-opacity:1;fill-rule:evenodd" d="m 71,745 h 8 v 4 h -8 z"/>
 </g>
 <g id="selected_hover-bottom" transform="matrix(2,0,0,2,-56,-1484)">
  <path id="path120" style="fill:#000000;fill-opacity:1;fill-rule:evenodd;opacity:0.001" transform="translate(18)" d="m 53,761 v 1 h 8 v -1 z"/>
  <path id="path122" style="opacity:0.9;fill:#903bda;fill-opacity:1;fill-rule:evenodd" d="m 71,757 h 8 v 4 h -8 z"/>
 </g>
 <path id="selected_hover-center" style="opacity:0.9;fill:#903bda;fill-opacity:1;fill-rule:evenodd;stroke-width:2" d="M 86.000003,14.000027 H 102 v 16 H 86.000003 Z"/>
 <g id="selected_hover-right" transform="matrix(2,0,0,2,-56,-1484)">
  <path id="path126" style="fill:#000000;fill-opacity:1;fill-rule:evenodd;opacity:0.001" transform="translate(18)" d="m 65,749 v 8 h 1 v -8 z"/>
  <path id="path128" style="opacity:0.9;fill:#903bda;fill-opacity:1;fill-rule:evenodd" d="m 79,749 h 4 v 8 h -4 z"/>
 </g>
 <g id="selected_hover-left" transform="matrix(2,0,0,2,-56,-1484)">
  <path id="path131" style="fill:#000000;fill-opacity:1;fill-rule:evenodd;opacity:0.001" transform="translate(18)" d="m 48,749 v 8 h 1 v -8 z"/>
  <path id="path133" style="opacity:0.9;fill:#903bda;fill-opacity:1;fill-rule:evenodd" d="m 67,749 h 4 v 8 h -4 z"/>
 </g>
 <g id="selected_hover-topleft" transform="matrix(2,0,0,2,-56,-1484)">
  <path id="path136" style="fill:#000000;fill-opacity:1;fill-rule:evenodd;paint-order:normal;opacity:0.001" transform="translate(18)" d="m 48,744 v 5 h 1 c 0,0 0,-4 4,-4 v -1 z"/>
  <path id="path138" style="opacity:0.9;fill:#903bda;fill-opacity:1;fill-rule:evenodd;paint-order:normal" d="m 71,745 v 4 h -4 c 0,0 0,-4 4,-4 z"/>
 </g>
 <g id="selected_hover-topright" transform="matrix(2,0,0,2,-56,-1484)">
  <path id="path141" style="fill:#000000;fill-opacity:1;fill-rule:evenodd;paint-order:normal;opacity:0.001" transform="translate(18)" d="m 61,744 v 1 c 4,0 4,4 4,4 h 1 v -5 z"/>
  <path id="path143" style="opacity:0.9;fill:#903bda;fill-opacity:1;fill-rule:evenodd;paint-order:normal" d="m 79,745 c 4,0 4,4 4,4 h -4 z"/>
 </g>
 <g id="selected_hover-bottomleft" transform="matrix(2,0,0,2,-56,-1484)">
  <path id="path146" style="fill:#000000;fill-opacity:1;fill-rule:evenodd;paint-order:normal;opacity:0.001" transform="translate(18)" d="m 48,757 v 5 h 5 v -1 c 0,0 -4,0 -4,-4 z"/>
  <path id="path148" style="opacity:0.9;fill:#903bda;fill-opacity:1;fill-rule:evenodd;paint-order:normal" d="m 67,757 h 4 v 4 c 0,0 -4,0 -4,-4 z"/>
 </g>
 <g id="selected_hover-bottomright" transform="matrix(2,0,0,2,-56,-1484)">
  <path id="path151" style="fill:#000000;fill-opacity:1;fill-rule:evenodd;paint-order:normal;opacity:0.001" transform="translate(18)" d="m 65,757 c 0,0 0.01477,4 -4,4 v 1 h 5 v -5 z"/>
  <path id="path153" style="opacity:0.9;fill:#903bda;fill-opacity:1;fill-rule:evenodd;paint-order:normal" d="m 79,757 h 4 c 0,0 0.01477,4 -4,4 z"/>
 </g>
</svg>
