<?xml version="1.0" encoding="UTF-8" standalone="no"?>
<svg
   xmlns:dc="http://purl.org/dc/elements/1.1/"
   xmlns:cc="http://creativecommons.org/ns#"
   xmlns:rdf="http://www.w3.org/1999/02/22-rdf-syntax-ns#"
   xmlns:svg="http://www.w3.org/2000/svg"
   xmlns="http://www.w3.org/2000/svg"
   xmlns:sodipodi="http://sodipodi.sourceforge.net/DTD/sodipodi-0.dtd"
   xmlns:inkscape="http://www.inkscape.org/namespaces/inkscape"
   id="svg12"
   width="22"
   height="22"
   version="1.1"
   sodipodi:docname="start.svg"
   inkscape:version="0.92.5 (2060ec1f9f, 2020-04-08)">
  <metadata
     id="metadata19">
    <rdf:RDF>
      <cc:Work
         rdf:about="">
        <dc:format>image/svg+xml</dc:format>
        <dc:type
           rdf:resource="http://purl.org/dc/dcmitype/StillImage" />
      </cc:Work>
    </rdf:RDF>
  </metadata>
  <defs
     id="defs17" />
  <sodipodi:namedview
     pagecolor="#ffffff"
     bordercolor="#666666"
     borderopacity="1"
     objecttolerance="10"
     gridtolerance="10"
     guidetolerance="10"
     inkscape:pageopacity="0"
     inkscape:pageshadow="2"
     inkscape:window-width="1920"
     inkscape:window-height="1022"
     id="namedview15"
     showgrid="false"
     inkscape:zoom="9.4"
     inkscape:cx="10.254237"
     inkscape:cy="10.720339"
     inkscape:window-x="0"
     inkscape:window-y="30"
     inkscape:window-maximized="1"
     inkscape:current-layer="svg12">
    <inkscape:grid
       type="xygrid"
       id="grid835" />
  </sodipodi:namedview>
  <g
     id="start-here-kde"
     transform="translate(27,-5)">
    <rect
       y="-5"
       x="-5"
       height="32"
       width="32"
       id="rect862"
       style="opacity:0.00100002;fill:#000000;fill-opacity:1;stroke:none;stroke-width:3.06153512;stroke-linecap:round;stroke-linejoin:round;stroke-miterlimit:4;stroke-dasharray:none;stroke-opacity:1" />
    <path
       inkscape:connector-curvature="0"
       id="path1969"
       d="m 10.990261,-3.0000065 c -0.154363,0.1565102 -0.986328,0.806922 -0.986328,0.806922 l 0.03906,1.2172215 -0.0039,0.2539948 c 0,0 -0.5876175,-0.4694161 -0.8632815,-0.6330333 0.0069,0.3762004 0.0059,1.5317843 0.0059,1.5317843 l 0.796875,0.5490196 0.06445,0.7756612 -0.0039,0.2579024 c 0,0 -1.310405,-0.906009 -1.648439,-1.1078082 0.0069,0.3762003 0.0039,1.5337379 0.0039,1.5337381 l 1.582032,1.0198869 0.07031,1.141023 -1.664063,1.2074523 -0.125,0.078152 -0.25978,-0.4689133 0.666016,-1.3774335 c 0,0 -0.254792,-0.4008531 -0.404297,-0.6349871 C 8.102338,3.4353744 7.570363,4.3834281 7.570363,4.3834281 L 7.2500515,3.8011938 7.6289575,2.9434727 c 0,0 -0.255916,-0.4009617 -0.40625,-0.6388946 -0.11283,0.205388 -0.398437,0.7150931 -0.398437,0.7150931 L 6.3047395,2.0759827 c 0,0 -0.358546,-0.077641 -0.539063,-0.1035518 -0.04465,0.1825944 -0.179687,0.64671 -0.179687,0.64671 l 0.384765,0.6134953 0.113281,0.2227338 c 0,0 -0.55222,-0.01624 -0.785156,-0.021492 0.146749,0.2668014 0.416016,0.7600307 0.416016,0.7600307 l 0.677734,-0.023445 0.3125,0.4337449 0.128906,0.222734 c 0,0 -1.027084,-0.025918 -1.361328,-0.037122 0.146749,0.2668007 0.417969,0.76003 0.417969,0.76003 l 1.257813,-0.017584 0.314453,0.4298375 0.06445,0.1191821 -1.736328,1.0452863 -1.007813,-0.5001742 -0.154297,-2.323076 c 0,0 -0.925407,-0.4741012 -1.240234,-0.6349871 0.0069,0.3853037 0.05273,2.1980325 0.05273,2.1980323 L 2.6602005,5.4208997 2.5293415,4.0317433 c 0,0 -0.924591,-0.477739 -1.242188,-0.6408485 5.3e-5,0.3163277 0.02539,1.2699741 0.02539,1.2699741 l -1.345703,-0.7639383 c 0,0 -0.755303,0.2479957 -0.966797,0.3165166 0.05001,0.2118129 0.289063,1.080455 0.289063,1.080455 l 1.0625,0.554881 0.220703,0.1250436 c 0,0 -0.805808,0.4597487 -1.087891,0.6193568 0.324292,0.1858149 1.3125,0.7443999 1.3125,0.7443999 l 0.978516,-0.603726 0.699218,0.31847 0.220704,0.125044 c 0,0 -1.545873,0.883901 -1.894532,1.082409 0.324292,0.18578 1.3125,0.742446 1.3125,0.742446 l 1.789063,-1.060917 1.039062,0.519713 0.07422,2.0534505 -0.0059,0.152396 -0.603493,-0.0078 -0.810547,-1.2719275 c 0,0 -0.474403,0.02236 -0.751953,0.03322 0.159554,0.281804 0.679688,1.2133125 0.679688,1.2133125 l -0.660157,-0.01563 -0.521484,-0.7561225 c 0,0 -0.475955,0.02236 -0.755859,0.03322 0.115253,0.2041975 0.390625,0.7053235 0.390625,0.7053235 l -1.066407,-0.0254 c 0,0 -0.253667,0.2788 -0.376953,0.412254 0.125463,0.141979 0.451172,0.484544 0.451172,0.484544 l 0.720703,-0.03908 0.251953,0.01368 c 0,0 -0.300779,0.475652 -0.427734,0.676017 0.30067,0.01225 0.859375,0.01368 0.859375,0.01368 l 0.326172,-0.607633 0.533203,-0.06838 0.25,0.01368 c 0,0 -0.561961,0.883652 -0.746094,1.172284 0.302349,0.01909 0.863281,0.01172 0.863281,0.01172 l 0.642579,-1.105862 0.617187,-0.05275 0.146484,0.0039 -0.002,2.168726 -0.972656,0.63694 -2.0625,-0.994487 c 0,0 -0.88254,0.579382 -1.185547,0.779569 0.335318,0.187145 1.910157,1.023794 1.910157,1.023794 l -0.783207,0.468921 -1.253906,-0.562697 c 0,0 -0.883006,0.579695 -1.1875,0.779569 0.275784,0.147752 1.101563,0.59005 1.101563,0.59005 l -1.34961,0.81083 c 0,0 -0.167799,0.77859 -0.216797,0.996441 0.208501,0.05812 1.076172,0.27744 1.076172,0.27744 l 1.021485,-0.660386 0.214843,-0.128951 c 0,0 -0.0096,0.932669 -0.0293,1.256297 0.32308,-0.192749 1.31836,-0.789338 1.31836,-0.789337 l -0.01758,-1.156654 0.630859,-0.453284 0.216797,-0.130904 c 0,0 -0.03845,1.786474 -0.04883,2.186309 0.319896,-0.19499 1.3125,-0.789337 1.3125,-0.789337 l 0.0039,-2.084712 1.105469,-0.707278 1.761718,0.922198 0.119141,0.06643 -0.384766,0.709232 -1.496093,0.160213 c 0,0 -0.212043,0.438897 -0.324219,0.693601 0.322286,-0.01909 1.384766,-0.06057 1.384766,-0.06057 l -0.324219,0.586142 -0.914063,0.130905 c 0,0 -0.199026,0.44263 -0.326172,0.697509 0.230392,-0.0087 0.802735,-0.04103 0.802735,-0.04103 l -0.523438,0.955411 c 0,0 0.119184,0.352143 0.179688,0.523621 0.177818,-0.05515 0.634765,-0.187566 0.634765,-0.187566 l 0.31445,-0.660386 0.115234,-0.224687 c 0,0 0.27459,0.483543 0.390625,0.68774 0.155228,-0.268115 0.419922,-0.765892 0.419922,-0.765892 l -0.375,-0.572466 0.207031,-0.502128 0.132813,-0.226641 c 0,0 0.503478,0.909425 0.667968,1.205498 0.155229,-0.26962 0.425782,-0.775661 0.425782,-0.775661 l -0.660157,-1.076548 0.320313,-0.719001 0.06836,-0.128951 1.550781,0.990581 0.07227,1.291465 -1.712888,1.330542 c 0,0 0.04579,1.05648 0.05859,1.418464 0.323687,-0.206385 1.654296,-1.180098 1.654296,-1.180098 l 0.0059,0.916334 -0.927735,0.828414 c 0,0 0.04579,1.055854 0.05859,1.41651 0.2667685,-0.167883 0.875,-0.674063 0.875,-0.674063 l -0.002,1.572814 c 0,0 0.750614,0.516542 0.925781,0.672109 0.175167,-0.155568 0.925781,-0.672109 0.925781,-0.672109 l -0.002,-1.572814 c 0,0 0.608231,0.50618 0.875,0.674063 0.0128,-0.360656 0.05859,-1.41651 0.05859,-1.41651 l -0.927734,-0.828414 0.0059,-0.916334 c 0,0 1.330609,0.973713 1.654297,1.180098 0.0128,-0.361984 0.05859,-1.418464 0.05859,-1.418464 l -1.712891,-1.330542 0.07226,-1.291465 1.550782,-0.990581 0.06836,0.128951 0.320313,0.719001 -0.660157,1.076548 c 0,0 0.270553,0.506041 0.425782,0.775661 0.16449,-0.296073 0.667968,-1.205498 0.667968,-1.205498 l 0.132813,0.226641 0.207031,0.502128 -0.375,0.572466 c 0,0 0.264694,0.497777 0.419922,0.765892 0.116035,-0.204197 0.390625,-0.68774 0.390625,-0.68774 l 0.115234,0.224687 0.314454,0.660387 c 0,0 0.456947,0.132417 0.634765,0.187566 0.0605,-0.171478 0.179688,-0.523621 0.179688,-0.523621 L 15.87691,18.884593 c 0,0 0.572342,0.03233 0.802735,0.04103 -0.127146,-0.254879 -0.326172,-0.697509 -0.326172,-0.697509 L 15.439409,18.097208 15.11519,17.511066 c 0,0 1.06248,0.04148 1.384766,0.06057 -0.112176,-0.254703 -0.324219,-0.693601 -0.324219,-0.693601 l -1.496093,-0.160212 -0.384766,-0.709232 0.11914,-0.06643 1.761719,-0.922197 1.105469,0.707278 0.0039,2.084712 c 0,0 0.992604,0.594347 1.3125,0.789337 -0.01039,-0.399835 -0.04883,-2.186309 -0.04883,-2.186309 l 0.216797,0.130904 0.630859,0.453284 -0.01758,1.156654 c 0,-10e-7 0.995279,0.596588 1.31836,0.789337 -0.0197,-0.323628 -0.0293,-1.256297 -0.0293,-1.256297 l 0.214843,0.128951 1.021485,0.660386 c 0,0 0.867671,-0.21932 1.076172,-0.27744 -0.049,-0.217851 -0.216797,-0.996441 -0.216797,-0.996441 l -1.34961,-0.81083 c 0,0 0.825779,-0.442298 1.101563,-0.59005 -0.304494,-0.199874 -1.1875,-0.779569 -1.1875,-0.779569 l -1.253906,0.562697 -0.783203,-0.468914 c 0,0 1.574838,-0.836649 1.910156,-1.023794 -0.303007,-0.200188 -1.185547,-0.779568 -1.185547,-0.779568 l -2.0625,0.994486 -0.972656,-0.636939 -0.002,-2.168726 0.146485,-0.0039 0.617187,0.05275 0.642578,1.105853 c 0,0 0.560933,0.0074 0.863282,-0.01172 -0.184133,-0.288632 -0.746094,-1.172284 -0.746094,-1.172284 l 0.25,-0.01368 0.533203,0.06838 0.326172,0.607633 c 0,0 0.558705,-0.0014 0.859375,-0.01368 -0.126955,-0.200364 -0.427734,-0.676017 -0.427734,-0.676017 l 0.251953,-0.01368 0.720703,0.03908 c 0,0 0.325709,-0.342565 0.451172,-0.484544 C 21.343408,10.85385 21.089741,10.57505 21.089741,10.57505 l -1.066407,0.0254 c 0,0 0.275332,-0.501126 0.390624,-0.7053235 -0.279903,-0.01086 -0.755859,-0.03321 -0.755859,-0.03321 l -0.521484,0.7561225 -0.660157,0.01563 c 0,0 0.520133,-0.9315205 0.679688,-1.2133135 -0.277551,-0.01086 -0.751953,-0.03322 -0.751953,-0.03322 l -0.810547,1.2719275 -0.603516,0.0078 -0.0059,-0.152396 0.07422,-2.0534505 1.039062,-0.519713 1.789063,1.060917 c 0,0 0.988208,-0.556666 1.3125,-0.742446 -0.34866,-0.198508 -1.894531,-1.082409 -1.894531,-1.082409 l 0.220703,-0.125044 0.699218,-0.31847 0.978516,0.603726 c 0,0 0.988208,-0.558584 1.3125,-0.7443999 C 22.233498,6.4335883 21.42769,5.9738395 21.42769,5.9738395 l 0.220704,-0.1250436 1.0625,-0.554881 c -1e-6,0 0.239042,-0.8686422 0.289062,-1.080455 -0.211494,-0.068521 -0.966797,-0.3165166 -0.966797,-0.3165166 l -1.345703,0.7639383 c 0,0 0.02534,-0.9536464 0.02539,-1.2699741 C 20.395249,3.554017 19.470658,4.031756 19.470658,4.031756 l -0.130859,1.3891564 -0.78125,0.4454678 c 0,2e-7 0.04583,-1.8127286 0.05273,-2.1980323 -0.314827,0.1608859 -1.240234,0.6349871 -1.240234,0.6349871 l -0.154297,2.323076 -1.007813,0.5001745 -1.736328,-1.0452866 0.06445,-0.1191821 0.314453,-0.4298375 1.257813,0.017584 c 0,0 0.27122,-0.4932301 0.417969,-0.7600307 -0.334244,0.011204 -1.361328,0.037122 -1.361328,0.037122 l 0.128906,-0.222734 0.3125,-0.4337449 0.677734,0.023445 c 0,0 0.269267,-0.4932297 0.416016,-0.7600307 -0.232936,0.00525 -0.785156,0.021492 -0.785156,0.021492 L 16.029245,3.2326482 16.41401,2.6191529 c 0,0 -0.135037,-0.4641156 -0.179687,-0.64671 -0.180517,0.025911 -0.539063,0.1035518 -0.539063,0.1035518 l -0.519531,0.9436885 c 0,0 -0.285607,-0.5097051 -0.398437,-0.7150931 -0.150334,0.2379329 -0.40625,0.6388946 -0.40625,0.6388946 l 0.378914,0.8577221 -0.320312,0.5822343 c -10e-7,0 -0.531976,-0.9480537 -0.689454,-1.2328519 -0.149505,0.234134 -0.404296,0.6349871 -0.404296,0.6349871 l 0.666015,1.3774335 -0.259765,0.4689136 -0.125,-0.078152 -1.664063,-1.2074523 0.07031,-1.141023 1.582031,-1.0198869 c 0,-10e-8 -0.003,-1.1575378 0.0039,-1.5337381 -0.338034,0.2017992 -1.648437,1.1078082 -1.648437,1.1078082 l -0.0039,-0.2579024 0.06445,-0.7756612 0.796875,-0.5490196 c 0,0 -10e-4,-1.1555839 0.0059,-1.5317843 -0.275664,0.1636173 -0.863281,0.6330333 -0.863281,0.6330333 l -0.0039,-0.2539948 0.03906,-1.2172215 c 0,0 -0.831965,-0.6504118 -0.986328,-0.806922 -0.0022,0.00203 -0.0074,0.0076 -0.0098,0.00977 -0.0024,-0.00217 -0.0076,-0.00774 -0.0098,-0.00977 z m -0.9375,9.0207244 0.002,2.0124206 c -0.06909,0.129899 -1.1699685,0.906566 -1.1699685,0.906566 l -1.638672,-0.865536 -0.212891,-0.12309 0.212891,-0.128951 -0.002,0.0039 z m 1.894532,0 2.808593,1.8053176 -0.002,-0.0039 0.212891,0.128951 -0.212891,0.12309 -1.638672,0.865536 c 0,0 -1.100882,-0.776668 -1.169922,-0.906566 z m -1.029297,3.1964276 0.08203,0.04689 0.08203,-0.04689 1.494141,0.9866715 0.0039,0.879213 c 0,0 0.0062,0.708547 -0.07422,0.844044 0,0 -1.358764,0.773148 -1.505859,0.767846 -0.147095,0.0053 -1.5058595,-0.767846 -1.5058595,-0.767846 -0.08046,-0.135497 -0.07422,-0.844044 -0.07422,-0.844044 l 0.0039,-0.879213 z m -4.5761725,0.07815 0.210937,0.12309 h 0.002 l 1.578125,0.9143805 0.0059,1.609937 -1.582031,0.984718 -0.210937,0.125044 z m 9.3164065,0 -0.0039,3.7571695 -0.210938,-0.125044 -1.582031,-0.984718 0.0059,-1.609937 1.578124,-0.9143805 h 0.002 z m -6.5605475,3.8997975 0.888672,0.617403 0.072272,1.88933 -0.0039,0.248133 -2.804694,-1.705672 0.222656,-0.126998 h 0.0059 z m 3.8046885,0 1.61914,0.922196 h 0.0059 l 0.222616,0.126998 -2.804688,1.705672 -0.0039,-0.248133 0.07227,-1.88933 z"
       style="opacity:1;fill:#ececec;fill-opacity:1;fill-rule:nonzero;stroke:none;stroke-width:0.4803161" />
  </g>
  <g
     id="22-22-start-here-kde">
    <rect
       y="0"
       x="0"
       height="22"
       width="22"
       id="rect837"
       style="opacity:0.00100002;fill:#000000;fill-opacity:1;stroke:none;stroke-width:7.4373579;stroke-linecap:round;stroke-linejoin:round;stroke-miterlimit:4;stroke-dasharray:none;stroke-opacity:1" />
    <path
       inkscape:connector-curvature="0"
       id="path833"
       d="m 11.493165,1.992188 c -0.09646,0.095035 -0.492124,0.4904598 -0.492124,0.4904598 l 0.02539,0.7386206 -0.0039,0.1543678 c 0,0 -0.489758,-0.2855925 -0.662024,-0.3849425 0.0042,0.2284326 0.002,0.930115 0.002,0.930115 l 0.622965,0.3341379 0.04101,0.4709195 -0.0039,0.1563218 c 0,0 -0.942905,-0.5496493 -1.1541475,-0.6721838 0.00433,0.2284326 0.00391,0.9320689 0.00391,0.9320689 L 10.983462,5.7595442 11.028382,6.4532224 9.8644708,7.1859809 9.7844031,7.2328775 9.6223149,6.9495442 10.04023,6.1132223 c 0,0 -0.1604456,-0.2447279 -0.253874,-0.3868965 C 9.687946,5.8992582 9.3567245,6.4747166 9.3567245,6.4747167 L 9.1555787,6.1210384 9.3918761,5.6012684 c 0,0 -0.1599267,-0.2443752 -0.2538732,-0.3888506 -0.07051,0.1247137 -0.2480146,0.4357471 -0.2480146,0.4357471 L 8.5658117,5.0736821 c 0,0 -0.2250388,-0.046795 -0.3378466,-0.062529 C 8.1999898,5.1220267 8.1146987,5.4039122 8.1146987,5.403912 l 0.2421559,0.3732184 0.070303,0.1348276 c 0,0 -0.045816,-0.00853 -0.1913814,-0.011724 0.091705,0.1620045 -0.039058,0.4611494 -0.039058,0.4611494 l 0.423773,-0.015632 0.195287,0.2637931 0.080068,0.1348276 c 0,0 -0.3418346,-0.014691 -0.5507096,-0.021494 0.091705,0.1620045 -0.039058,0.4611494 -0.039058,0.4611494 l 0.7870087,-0.011725 0.1952871,0.261839 0.04101,0.072299 L 8.2435881,8.1414982 7.913553,7.8366706 7.8178623,6.4278201 c 0,0 -0.5785486,-0.2892049 -0.7752896,-0.3868966 0.00433,0.2339604 0.033199,1.3345977 0.033199,1.3345977 L 6.5875537,7.105866 6.5055332,6.2617281 c 0,0 -0.8775603,-0.2898088 -1.0760318,-0.3888506 3.24e-5,0.1920774 0.015623,0.7718391 0.015623,0.7718391 L 4.603437,6.1796592 c 0,0 -0.4712705,0.1498875 -0.603437,0.1914942 0.031253,0.128615 0.181617,0.6585057 0.181617,0.6585057 l 0.6620232,0.336092 0.1386538,0.076207 c 0,0 -0.5033195,0.2782568 -0.679599,0.3751724 0.2026568,0.1128292 0.8202057,0.4533334 0.8202057,0.4533334 l 0.6112485,-0.3673566 0.7362323,0.1934483 0.1386538,0.074253 c 0,0 -1.2662984,0.5379696 -1.4841818,0.6585058 0.2026557,0.1128078 0.8202058,0.4513794 0.8202058,0.4513792 L 7.3628434,8.6358661 8.0111965,8.9504637 8.0580655,10.19713 8.0561155,10.29092 7.6772586,10.28502 7.1714651,9.5131813 c 0,0 -0.2971958,0.01295 -0.4706418,0.01954 C 6.8005283,9.7038768 7.126546,10.26943 7.126546,10.26943 L 6.7125374,10.26163 6.0876188,9.8024343 c 0,0 -0.295725,0.01295 -0.4706418,0.01954 0.072024,0.1239902 0.2441088,0.4298847 0.2441088,0.4298847 L 5.193204,10.23621 c 0,0 -0.1592536,0.16908 -0.2362974,0.250115 0.078405,0.08621 0.2831663,0.293104 0.2831663,0.293104 l 0.4491603,-0.02345 0.1581825,0.0078 c 0,0 -0.1882071,0.290635 -0.2675433,0.412299 0.1878939,0.0074 0.8377815,0.0059 0.8377816,0.0059 l 0.2030986,-0.369311 0.3339408,-0.03908 0.1562297,0.0059 c 0,0 -0.3516681,0.537959 -0.4667362,0.713219 0.188943,0.01158 0.5389925,0.0078 0.5389925,0.0078 l 0.4022913,-0.672184 0.3866683,-0.03322 0.089832,0.0039 v 1.317012 L 7.4526755,12.502877 5.8649916,11.899085 c 0,0 -0.5507841,0.351317 -0.7401381,0.472873 0.2095455,0.113637 1.4919933,0.621379 1.4919933,0.621379 L 5.827887,13.278624 5.0447859,12.93667 c 0,0 -0.5518068,0.351508 -0.7420909,0.472874 0.1723432,0.08971 0.6874105,0.35954 0.6874105,0.35954 l -0.8416873,0.49046 c 0,0 -0.1060816,0.473465 -0.1367009,0.605748 0.1302955,0.0353 0.6737404,0.168045 0.6737404,0.168045 l 0.6385887,-0.400574 0.1347481,-0.07816 c 0,0 -0.0072,0.567514 -0.019528,0.764022 0.2018983,-0.117038 1.1229004,-0.48069 1.1229004,-0.48069 l -0.011717,-0.701494 0.3964328,-0.275518 0.1347481,-0.08011 c 0,0 -0.024757,1.085952 -0.031246,1.328736 0.1999088,-0.1184 0.8202058,-0.48069 0.8202058,-0.48069 l 0.00391,-1.266207 0.3905742,-0.427931 1.0994662,0.558851 0.076162,0.04103 -0.240203,0.429886 -0.9354251,0.0977 c 0,0 -0.1329978,0.26741 -0.2030986,0.422068 0.2014023,-0.01159 0.8651218,-0.03908 0.8651218,-0.03908 l -0.2030986,0.357586 -0.5702382,0.07816 c 0,0 0.1751462,0.269259 0.09569,0.424024 0.1439759,-0.0053 0.2030986,-0.02345 0.2030986,-0.02345 l -0.328086,0.578393 c 0,0 0.073503,0.214382 0.1113136,0.318506 0.1111217,-0.03349 0.3964328,-0.113334 0.3964328,-0.113334 l 0.1972399,-0.400574 0.072257,-0.136782 c 0,0 0.1715964,0.294171 0.2441088,0.418161 0.097003,-0.162802 0.2616846,-0.467011 0.2616846,-0.467011 l -0.2323916,-0.345862 0.1288895,-0.304828 0.08202,-0.138736 c 0,0 0.3151206,0.55298 0.4179143,0.732758 0.097003,-0.163716 0.2655922,-0.470919 0.2655902,-0.470919 l -0.4120555,-0.654598 0.1991929,-0.435747 0.042963,-0.07816 1.0955606,0.599886 0.04491,0.785517 -1.195157,0.807011 c 0,0 0.02715,0.641925 0.035151,0.861725 0.202279,-0.125319 1.160005,-0.715173 1.160005,-0.715173 l 0.0039,0.554942 -0.704986,0.502185 c 0,0 0.02912,0.642729 0.03711,0.861724 0.166708,-0.101941 0.669835,-0.410346 0.669835,-0.410346 v 0.955518 c 0,0 0.345824,0.310808 0.453066,0.406437 v -7.47023 c -0.09193,0.0032 -0.941284,-0.465057 -0.941284,-0.465057 -0.05028,-0.08228 -0.04686,-0.513909 -0.04686,-0.513909 l 0.002,-0.533448 c 0.04325,-0.069625 0.560474,-0.3732183 0.560474,-0.3732183 l -0.002,-0.00586 0.376906,-0.2188537 0.05077,0.027356 V 1.9980501 c -0.0014,-0.00128 -0.0045,-0.00467 -0.0059,-0.00586 z m 0.01367,0 c -0.0014,0.0012 -0.0045,0.00458 -0.0059,0.00586 v 7.4409193 l 0.05077,-0.027356 0.376905,0.2188506 -0.002,0.00586 c 0,0 0.517102,0.3035933 0.560474,0.3732181 l 0.002,0.533448 c 0,0 0.0034,0.431631 -0.04686,0.513909 0,0 -0.849356,0.468259 -0.941284,0.465057 v 7.47023 c 0.107242,-0.09563 0.453066,-0.406437 0.453066,-0.406437 v -0.955518 c 0,0 0.503127,0.308405 0.669835,0.410346 0.008,-0.218995 0.03711,-0.861724 0.03711,-0.861724 l -0.704986,-0.502185 0.0039,-0.554942 c 0,0 0.957725,0.589859 1.160005,0.715173 0.008,-0.2198 0.03515,-0.861725 0.03515,-0.861725 l -1.195156,-0.807011 0.04491,-0.785517 1.09556,-0.599886 0.04297,0.07816 0.199193,0.435747 -0.412056,0.654598 c -10e-7,0 0.168583,0.307203 0.265591,0.470919 0.102794,-0.179778 0.417913,-0.732758 0.417913,-0.732758 l 0.08202,0.138736 0.128889,0.304828 -0.232392,0.345862 c 0,0 0.164678,0.304209 0.261685,0.467011 0.07251,-0.12399 0.244108,-0.418161 0.244108,-0.418161 l 0.07226,0.136782 0.19724,0.400574 c 0,0 0.285311,0.07985 0.396433,0.113334 0.03782,-0.104124 0.111313,-0.318506 0.111313,-0.318506 l -0.328082,-0.578391 c 0,0 0.05912,0.01815 0.203098,0.02345 -0.07946,-0.154765 0.09569,-0.424024 0.09569,-0.424024 l -0.570238,-0.07816 -0.203098,-0.357586 c 0,0 0.663718,0.02749 0.865121,0.03908 -0.0701,-0.154658 -0.203099,-0.422068 -0.203099,-0.422068 l -0.935425,-0.0977 -0.240203,-0.429886 0.07616,-0.04103 1.099466,-0.558851 0.390574,0.427931 0.0039,1.266207 c 0,0 0.620297,0.362292 0.820206,0.48069 -0.0065,-0.242784 -0.03125,-1.328736 -0.03125,-1.328736 l 0.134749,0.08011 0.396432,0.275518 -0.01172,0.701494 c 0,0 0.921006,0.363635 1.1229,0.480689 -0.01233,-0.196508 -0.01953,-0.764022 -0.01953,-0.764022 l 0.134747,0.07816 0.638589,0.400574 c 0,0 0.543445,-0.132749 0.673741,-0.168045 -0.03062,-0.132283 -0.136701,-0.605748 -0.136701,-0.605748 l -0.841687,-0.49046 c 0,0 0.515067,-0.269829 0.68741,-0.35954 -0.190236,-0.121362 -0.742043,-0.47287 -0.742043,-0.47287 l -0.783101,0.341954 -0.788959,-0.285287 c 0,0 1.282447,-0.507742 1.491992,-0.621379 -0.189354,-0.121556 -0.740137,-0.472873 -0.740137,-0.472873 l -1.587684,0.603792 -0.609296,-0.386896 v -1.317012 l 0.08983,-0.0039 0.386669,0.03322 0.40229,0.672184 c 0,0 0.35005,0.0038 0.538993,-0.0078 -0.115069,-0.17526 -0.466736,-0.713219 -0.466736,-0.713219 l 0.15623,-0.0059 0.33394,0.03908 0.203099,0.369311 c 0,0 0.649887,0.0015 0.837782,-0.0059 -0.07934,-0.121664 -0.267543,-0.412299 -0.267543,-0.412299 l 0.158182,-0.0078 0.44916,0.02345 c 0,0 0.204767,-0.206894 0.283167,-0.293104 -0.07704,-0.08103 -0.236298,-0.250115 -0.236298,-0.250115 l -0.667882,0.01563 c 0,0 0.172089,-0.3058949 0.24411,-0.4298851 -0.174917,-0.00659 -0.470643,-0.01954 -0.470643,-0.01954 l -0.624919,0.4591951 -0.414008,0.0078 c 0,0 0.326019,-0.5655526 0.425726,-0.7366672 -0.173447,-0.00659 -0.470642,-0.01954 -0.470642,-0.01954 l -0.505793,0.7718392 -0.378858,0.0059 -0.002,-0.09379 0.04686,-1.2466668 0.648354,-0.3145976 1.417784,0.6448275 c 0,10e-8 0.61755,-0.3385714 0.820205,-0.4513792 C 17.657263,8.7087781 16.390965,8.1708085 16.390965,8.1708085 l 0.138654,-0.074253 0.736232,-0.1934483 0.611248,0.3673564 c 0,0 0.617549,-0.3405042 0.820206,-0.4533334 -0.17628,-0.096916 -0.679599,-0.3751724 -0.679599,-0.3751724 l 0.138654,-0.076207 0.662023,-0.336092 c 0,1e-7 0.150361,-0.5298907 0.181617,-0.6585057 -0.132167,-0.041607 -0.603436,-0.1914942 -0.603436,-0.1914942 l -0.841688,0.4650574 c 0,0 0.01559,-0.5797617 0.01563,-0.7718391 -0.198472,0.099042 -1.076032,0.3888506 -1.076032,0.3888506 l -0.08202,0.8441379 -0.488218,0.2696552 c 0,0 0.0289,-1.1006373 0.0332,-1.3345977 -0.196741,0.097692 -0.775289,0.3868966 -0.775289,0.3868966 l -0.09569,1.4088505 -0.330036,0.3048276 -1.085796,-0.6350574 0.04101,-0.072299 0.195286,-0.261839 0.787007,0.011724 c 0,0 -0.130765,-0.2991449 -0.03905,-0.4611494 -0.208875,0.0068 -0.55071,0.021494 -0.55071,0.021494 l 0.08007,-0.1348276 0.195287,-0.2637931 0.423773,0.015632 c -10e-7,0 -0.130766,-0.2991449 -0.03905,-0.4611494 -0.145567,0.00319 -0.191381,0.011724 -0.191381,0.011724 l 0.0703,-0.1348276 0.242157,-0.3732184 c 0,2e-7 -0.08529,-0.2818853 -0.113267,-0.3927586 -0.112808,0.015733 -0.337847,0.062529 -0.337847,0.062529 l -0.324176,0.5744828 c 0,0 -0.177504,-0.3110334 -0.248015,-0.4357471 -0.09395,0.1444754 -0.253873,0.3888506 -0.253873,0.3888506 l 0.236297,0.51977 -0.201146,0.3536783 c 0,-2e-7 -0.331223,-0.5754585 -0.429631,-0.7483909 -0.09343,0.1421686 -0.253873,0.3868965 -0.253873,0.3868965 l 0.417914,0.8363219 -0.162088,0.2833333 -0.08007,-0.046897 -1.163912,-0.7327585 0.04491,-0.6936782 1.111184,-0.6174712 c 0,0 -3.94e-4,-0.7036363 0.0039,-0.9320689 -0.211241,0.1225345 -1.154146,0.6721838 -1.154146,0.6721838 l -0.0039,-0.1563218 0.04101,-0.4709195 0.622966,-0.3341379 c 0,0 -0.0022,-0.7016824 0.002,-0.930115 -0.172266,0.09935 -0.662023,0.3849425 -0.662023,0.3849425 l -0.004,-0.1543667 0.02539,-0.7386206 c 0,0 -0.395666,-0.3954251 -0.492125,-0.4904598 z m -0.474548,5.4771263 0.002,1.2212643 c -0.04315,0.078876 -0.85731,0.5510343 -0.85731,0.5510345 L 9.1536259,8.7159809 9.0208307,8.6417281 l 0.1308424,-0.076207 0.00195,-0.00195 z m 0.935426,0 1.878661,1.0942528 0.002,0.00195 0.130843,0.076207 -0.132796,0.074253 -1.023304,0.5256322 c 0,-2e-7 -0.814156,-0.4721582 -0.85731,-0.5510345 z m -3.179274,1.9891953 0.1327953,0.074253 0.7870069,0.5549424 0.00195,0.977011 -0.7870069,0.599886 -0.1327952,0.07425 z m 5.423122,0 -0.002,2.2803454 -0.132796,-0.07425 -0.787007,-0.599886 0.002,-0.977011 0.787007,-0.5549425 z m -3.901836,2.3663214 0.681553,0.377127 0.04491,1.145057 -0.0039,0.152414 -1.8767083,-1.035632 0.1406067,-0.07816 h 0.00195 z m 2.38055,0 1.011587,0.560805 h 0.002 l 0.140606,0.07816 -1.876708,1.035632 -0.0039,-0.152414 0.04491,-1.145057 z"
       style="opacity:1;fill:#ececec;fill-opacity:1;fill-rule:nonzero;stroke:none;stroke-width:0.29587498" />
  </g>
</svg>
