<?xml version="1.0" encoding="UTF-8" standalone="no"?>
<svg
   xmlns:dc="http://purl.org/dc/elements/1.1/"
   xmlns:cc="http://creativecommons.org/ns#"
   xmlns:rdf="http://www.w3.org/1999/02/22-rdf-syntax-ns#"
   xmlns:svg="http://www.w3.org/2000/svg"
   xmlns="http://www.w3.org/2000/svg"
   xmlns:sodipodi="http://sodipodi.sourceforge.net/DTD/sodipodi-0.dtd"
   xmlns:inkscape="http://www.inkscape.org/namespaces/inkscape"
   version="1.1"
   id="IconsRepoEditor"
   x="0px"
   y="0px"
   width="64px"
   height="64px"
   viewBox="0 0 95.098 95.098"
   style="enable-background:new 0 0 95.098 95.098;"
   xml:space="preserve"
   fill="#888888"
   stroke="#888888"
   stroke-width="0"
   sodipodi:docname="blank.svg"
   inkscape:version="0.92.4 5da689c313, 2019-01-14"><metadata
   id="metadata14"><rdf:RDF><cc:Work
       rdf:about=""><dc:format>image/svg+xml</dc:format><dc:type
         rdf:resource="http://purl.org/dc/dcmitype/StillImage" /><dc:title></dc:title></cc:Work></rdf:RDF></metadata><defs
   id="defs12" /><sodipodi:namedview
   pagecolor="#ffffff"
   bordercolor="#666666"
   borderopacity="1"
   objecttolerance="10"
   gridtolerance="10"
   guidetolerance="10"
   inkscape:pageopacity="0"
   inkscape:pageshadow="2"
   inkscape:window-width="1600"
   inkscape:window-height="835"
   id="namedview10"
   showgrid="true"
   showguides="true"
   inkscape:zoom="7.375"
   inkscape:cx="32"
   inkscape:cy="32"
   inkscape:window-x="0"
   inkscape:window-y="0"
   inkscape:window-maximized="1"
   inkscape:current-layer="IconsRepoEditor"><inkscape:grid
     type="xygrid"
     id="grid4528" /></sodipodi:namedview>

<g
   id="IconsRepo_bgCarrier" /> <path
   style="opacity:1;stroke-width:0"
   d="M 1.4375,0 C 0.64471773,0 0,0.64404474 0,1.4375 v 61.125 C 0,63.355282 0.64471773,64 1.4375,64 h 61.125 C 63.355282,64 64,63.355955 64,62.5625 V 1.4375 C 64,0.64471773 63.355282,0 62.5625,0 Z M 0.99999997,0.99999997 H 62.999998 V 62.999998 H 0.99999997 Z"
   transform="scale(1.4859063)"
   id="path3"
   inkscape:connector-curvature="0"
   sodipodi:nodetypes="sssssssssccccc" />   <path
   style="stroke-width:1.58817422"
   inkscape:connector-curvature="0"
   d="m 71.865755,16.16032 -34.001568,4.660989 c -0.769672,0.10608 -1.346152,0.798048 -1.346152,1.618944 v 6.994749 4.895999 27.314774 c -2.118917,-2.167294 -5.14042,-3.533278 -8.500394,-3.533278 -6.392295,0 -11.591444,4.917215 -11.591444,10.958876 0,6.041663 5.199149,10.955612 11.591444,10.955612 6.392296,0 11.591445,-4.915581 11.591445,-10.957244 V 35.763895 l 30.91052,-4.239934 v 19.598681 c -2.097281,-2.149343 -5.077054,-3.50227 -8.390659,-3.50227 -6.330475,0 -11.480168,4.917214 -11.480168,10.958876 0,6.041662 5.151238,10.957244 11.480168,10.957244 6.330466,0 11.481704,-4.915582 11.481704,-10.957244 V 29.668378 24.77238 17.77763 c 0,-0.470015 -0.191642,-0.917182 -0.525474,-1.225631 C 72.7498,16.243551 72.303144,16.096672 71.865755,16.16032 Z M 28.017641,76.762987 c -4.687579,0 -8.500392,-3.450047 -8.500392,-7.693245 0,-4.2432 3.812813,-7.694877 8.500392,-7.694877 4.687582,0 8.500393,3.451677 8.500393,7.694877 0,4.243196 -3.812812,7.693245 -8.500393,7.693245 z M 39.609086,32.472153 V 29.435002 23.87478 l 30.91052,-4.238301 v 5.13427 3.46147 z m 22.51986,33.798707 c -4.625763,0 -8.389115,-3.450046 -8.389115,-7.693245 0,-4.243197 3.763352,-7.694877 8.389115,-7.694877 4.625755,0 8.390661,3.453311 8.390661,7.694877 0,4.241568 -3.764905,7.693245 -8.390661,7.693245 z"
   id="path5-3" /></svg>