<?xml version="1.0" encoding="UTF-8" standalone="no"?>
<svg
   xmlns:dc="http://purl.org/dc/elements/1.1/"
   xmlns:cc="http://creativecommons.org/ns#"
   xmlns:rdf="http://www.w3.org/1999/02/22-rdf-syntax-ns#"
   xmlns:svg="http://www.w3.org/2000/svg"
   xmlns="http://www.w3.org/2000/svg"
   xmlns:sodipodi="http://sodipodi.sourceforge.net/DTD/sodipodi-0.dtd"
   xmlns:inkscape="http://www.inkscape.org/namespaces/inkscape"
   version="1.1"
   id="IconsRepoEditor"
   x="0px"
   y="0px"
   width="64px"
   height="64px"
   viewBox="0 0 95.098 95.098"
   style="enable-background:new 0 0 95.098 95.098;"
   xml:space="preserve"
   fill="#888888"
   stroke="#888888"
   stroke-width="0"
   sodipodi:docname="unknown.svg"
   inkscape:version="0.92.4 5da689c313, 2019-01-14"><metadata
   id="metadata14"><rdf:RDF><cc:Work
       rdf:about=""><dc:format>image/svg+xml</dc:format><dc:type
         rdf:resource="http://purl.org/dc/dcmitype/StillImage" /><dc:title></dc:title></cc:Work></rdf:RDF></metadata><defs
   id="defs12" /><sodipodi:namedview
   pagecolor="#ffffff"
   bordercolor="#666666"
   borderopacity="1"
   objecttolerance="10"
   gridtolerance="10"
   guidetolerance="10"
   inkscape:pageopacity="0"
   inkscape:pageshadow="2"
   inkscape:window-width="1600"
   inkscape:window-height="835"
   id="namedview10"
   showgrid="true"
   showguides="true"
   inkscape:zoom="10.429825"
   inkscape:cx="32"
   inkscape:cy="39.670311"
   inkscape:window-x="0"
   inkscape:window-y="0"
   inkscape:window-maximized="1"
   inkscape:current-layer="IconsRepoEditor"><inkscape:grid
     type="xygrid"
     id="grid4528" /></sodipodi:namedview>

<g
   id="IconsRepo_bgCarrier" /> <path
   style="opacity:1;stroke-width:0"
   d="M 1.4375,0 C 0.64471773,0 0,0.64404474 0,1.4375 v 61.125 C 0,63.355282 0.64471773,64 1.4375,64 h 61.125 C 63.355282,64 64,63.355955 64,62.5625 V 1.4375 C 64,0.64471773 63.355282,0 62.5625,0 Z M 0.99999997,0.99999997 H 62.999998 V 62.999998 H 0.99999997 Z"
   transform="scale(1.4859063)"
   id="path3"
   inkscape:connector-curvature="0"
   sodipodi:nodetypes="sssssssssccccc" /> <path
   d="M51.006,72.305h-6.928c-0.777,0-1.409,0.631-1.409,1.409v6.224c0,0.779,0.632,1.41,1.409,1.41h6.928 c0.779,0,1.41-0.631,1.41-1.41v-6.224C52.416,72.936,51.785,72.305,51.006,72.305z"
   id="path5" /> <path
   d="M28.177,35.242h7.055c0.747,0,1.364-0.583,1.407-1.33c0.326-5.774,5.117-10.297,10.903-10.297 c6.022,0,10.923,4.899,10.923,10.922c0,3.657-1.41,5.01-4.885,7.985c-4.539,3.885-10.757,9.207-10.965,22.81 c-0.006,0.377,0.141,0.74,0.406,1.01c0.264,0.27,0.626,0.421,1.004,0.421h7.047c0.769,0,1.396-0.616,1.408-1.385 c0.155-9.063,3.402-11.843,7.516-15.363c3.713-3.178,8.334-7.133,8.334-15.478c0-11.462-9.325-20.787-20.788-20.787 c-11.244,0-20.369,8.799-20.773,20.032c-0.014,0.383,0.129,0.754,0.394,1.029C27.429,35.086,27.794,35.242,28.177,35.242z"
   id="path7" /> </svg>