<svg xmlns="http://www.w3.org/2000/svg" width="14" height="14" version="1.1">
 <g id="active-center" transform="translate(-4,-4)">
  <rect style="opacity:0.00100002;fill:#000000;fill-opacity:1;stroke:none;stroke-width:1.92783177;stroke-linecap:round;stroke-linejoin:round;stroke-miterlimit:4;stroke-dasharray:none;stroke-opacity:1" width="14" height="14" x="4" y="4"/>
  <circle style="opacity:1;fill:#f44336;fill-opacity:1;stroke:none;stroke-width:1.94492304;stroke-linecap:round;stroke-linejoin:round;stroke-miterlimit:4;stroke-dasharray:none;stroke-opacity:1" cx="11" cy="11" r="7"/>
 </g>
 <g id="inactive-center" transform="translate(42)">
  <rect style="opacity:0.00100002;fill:#000000;fill-opacity:1;stroke:none;stroke-width:1.92783177;stroke-linecap:round;stroke-linejoin:round;stroke-miterlimit:4;stroke-dasharray:none;stroke-opacity:1" width="14" height="14" x="0" y="0"/>
  <circle style="opacity:0.23999999;fill:#ffffff;fill-opacity:1;stroke:none;stroke-width:1.94492304;stroke-linecap:round;stroke-linejoin:round;stroke-miterlimit:4;stroke-dasharray:none;stroke-opacity:1" cx="7" cy="7" r="7"/>
 </g>
 <g id="deactivated-center" transform="translate(56)">
  <rect style="opacity:0.00100002;fill:#000000;fill-opacity:1;stroke:none;stroke-width:1.92783177;stroke-linecap:round;stroke-linejoin:round;stroke-miterlimit:4;stroke-dasharray:none;stroke-opacity:1" width="14" height="14" x="0" y="0"/>
  <circle style="opacity:0.12;fill:#ffffff;fill-opacity:1;stroke:none;stroke-width:1.94492304;stroke-linecap:round;stroke-linejoin:round;stroke-miterlimit:4;stroke-dasharray:none;stroke-opacity:1" cx="7" cy="7" r="7"/>
 </g>
 <g id="hover-center">
  <rect style="opacity:0.00100002;fill:#000000;fill-opacity:1;stroke:none;stroke-width:1.92783177;stroke-linecap:round;stroke-linejoin:round;stroke-miterlimit:4;stroke-dasharray:none;stroke-opacity:1" width="14" height="14" x="14" y="0"/>
  <circle style="opacity:1;fill:#f44336;fill-opacity:1;stroke:none;stroke-width:1.94492304;stroke-linecap:round;stroke-linejoin:round;stroke-miterlimit:4;stroke-dasharray:none;stroke-opacity:1" cx="21" cy="7" r="7"/>
  <path style="opacity:0.2;fill:#000000;stroke-width:0.85714823" d="m 18.282302,5.2823085 c -0.376402,0.376366 -0.376402,0.982375 0,1.358837 l 1.358849,1.358836 -1.358849,1.3588361 c -0.376402,0.376461 -0.376402,0.9824704 0,1.3588364 0.3764,0.376461 0.982447,0.376461 1.358849,0 L 21,9.3588176 22.35885,10.717654 c 0.376401,0.376461 0.982448,0.376461 1.35885,0 0.3764,-0.376366 0.3764,-0.9823754 0,-1.3588364 L 22.35885,7.9999825 23.7177,6.6411455 c 0.3764,-0.376462 0.3764,-0.9824711 0,-1.3588371 -0.376402,-0.3764609 -0.982449,-0.3764609 -1.35885,0 L 21,6.6411455 19.641151,5.2823085 c -0.376402,-0.3764609 -0.982449,-0.3764609 -1.358849,0 z"/>
  <path style="opacity:1;fill:#ffffff;stroke-width:0.85714823" d="m 18.282302,4.2823271 c -0.376402,0.376366 -0.376402,0.982375 0,1.358837 l 1.358849,1.358836 -1.358849,1.358836 c -0.376402,0.376461 -0.376402,0.98247 0,1.358836 0.3764,0.3764619 0.982447,0.3764619 1.358849,0 L 21,8.3588361 l 1.35885,1.358836 c 0.376401,0.3764619 0.982448,0.3764619 1.35885,0 0.3764,-0.376366 0.3764,-0.982375 0,-1.358836 l -1.35885,-1.358835 1.35885,-1.358837 c 0.3764,-0.376462 0.3764,-0.9824711 0,-1.3588371 -0.376402,-0.3764609 -0.982449,-0.3764609 -1.35885,0 L 21,5.6411641 19.641151,4.282327 c -0.376402,-0.3764609 -0.982449,-0.3764609 -1.358849,10e-8 z"/>
 </g>
 <g id="pressed-center">
  <rect style="opacity:0.00100002;fill:#000000;fill-opacity:1;stroke:none;stroke-width:1.92783177;stroke-linecap:round;stroke-linejoin:round;stroke-miterlimit:4;stroke-dasharray:none;stroke-opacity:1" width="14" height="14" x="28" y="0"/>
  <circle style="opacity:1;fill:#d32f2f;fill-opacity:1;stroke:none;stroke-width:1.94492304;stroke-linecap:round;stroke-linejoin:round;stroke-miterlimit:4;stroke-dasharray:none;stroke-opacity:1" cx="35" cy="7" r="7"/>
  <path style="opacity:0.2;fill:#000000;stroke-width:0.85714823" d="m 32.282302,5.2823086 c -0.376402,0.376366 -0.376402,0.982375 0,1.3588371 l 1.358849,1.358836 -1.358849,1.358836 c -0.376402,0.376461 -0.376402,0.9824703 0,1.3588363 0.3764,0.376461 0.982447,0.376461 1.358849,0 L 35,9.3588177 36.35885,10.717654 c 0.376401,0.376461 0.982448,0.376461 1.35885,0 0.3764,-0.376366 0.3764,-0.9823753 0,-1.3588363 l -1.35885,-1.358835 1.35885,-1.358837 c 0.3764,-0.3764621 0.3764,-0.9824711 0,-1.3588371 -0.376402,-0.376461 -0.982449,-0.376461 -1.35885,0 L 35,6.6411457 33.641151,5.2823085 c -0.376402,-0.3764609 -0.982449,-0.3764609 -1.358849,1e-7 z"/>
  <path style="opacity:1;fill:#ffffff;stroke-width:0.85714823" d="m 32.282302,4.2823272 c -0.376402,0.376366 -0.376402,0.982375 0,1.358837 l 1.358849,1.358836 -1.358849,1.358836 c -0.376402,0.376461 -0.376402,0.98247 0,1.358836 0.3764,0.3764618 0.982447,0.3764618 1.358849,0 L 35,8.3588362 l 1.35885,1.358836 c 0.376401,0.3764618 0.982448,0.3764618 1.35885,0 0.3764,-0.376366 0.3764,-0.982375 0,-1.358836 l -1.35885,-1.358835 1.35885,-1.358837 c 0.3764,-0.376462 0.3764,-0.9824711 0,-1.3588371 -0.376402,-0.3764609 -0.982449,-0.3764609 -1.35885,0 L 35,5.6411642 33.641151,4.2823271 c -0.376402,-0.3764609 -0.982449,-0.3764609 -1.358849,1e-7 z"/>
 </g>
</svg>
