<svg xmlns="http://www.w3.org/2000/svg" width="14" height="14" version="1.1">
 <g id="active-center" transform="translate(-4,-4)">
  <rect style="opacity:0.00100002;fill:#000000;fill-opacity:1;stroke:none;stroke-width:1.92783177;stroke-linecap:round;stroke-linejoin:round;stroke-miterlimit:4;stroke-dasharray:none;stroke-opacity:1" width="14" height="14" x="4" y="4"/>
  <circle style="opacity:1;fill:#8bc34a;fill-opacity:1;stroke:none;stroke-width:1.94492304;stroke-linecap:round;stroke-linejoin:round;stroke-miterlimit:4;stroke-dasharray:none;stroke-opacity:1" cx="11" cy="11" r="7"/>
 </g>
 <g id="inactive-center" transform="translate(42)">
  <rect style="opacity:0.00100002;fill:#000000;fill-opacity:1;stroke:none;stroke-width:1.92783177;stroke-linecap:round;stroke-linejoin:round;stroke-miterlimit:4;stroke-dasharray:none;stroke-opacity:1" width="14" height="14" x="0" y="0"/>
  <circle style="opacity:0.23999999;fill:#ffffff;fill-opacity:1;stroke:none;stroke-width:1.94492304;stroke-linecap:round;stroke-linejoin:round;stroke-miterlimit:4;stroke-dasharray:none;stroke-opacity:1" cx="7" cy="7" r="7"/>
 </g>
 <g id="deactivated-center" transform="translate(56)">
  <rect style="opacity:0.00100002;fill:#000000;fill-opacity:1;stroke:none;stroke-width:1.92783177;stroke-linecap:round;stroke-linejoin:round;stroke-miterlimit:4;stroke-dasharray:none;stroke-opacity:1" width="14" height="14" x="0" y="0"/>
  <circle style="opacity:0.12;fill:#ffffff;fill-opacity:1;stroke:none;stroke-width:1.94492304;stroke-linecap:round;stroke-linejoin:round;stroke-miterlimit:4;stroke-dasharray:none;stroke-opacity:1" cx="7" cy="7" r="7"/>
 </g>
 <g id="hover-center">
  <rect style="opacity:0.00100002;fill:#000000;fill-opacity:1;stroke:none;stroke-width:1.92783177;stroke-linecap:round;stroke-linejoin:round;stroke-miterlimit:4;stroke-dasharray:none;stroke-opacity:1" width="14" height="14" x="14" y="0"/>
  <circle style="opacity:1;fill:#8bc34a;fill-opacity:1;stroke:none;stroke-width:1.94492304;stroke-linecap:round;stroke-linejoin:round;stroke-miterlimit:4;stroke-dasharray:none;stroke-opacity:1" cx="21" cy="7" r="7"/>
  <path style="opacity:0.2;fill:#000000;stroke-width:0.85714287" d="M 19.414062,4.9999998 24,9.5858992 V 5.9999995 C 24,5.5844997 23.4155,4.9999998 22.999999,4.9999998 Z M 18,6.4140994 V 9.9999992 C 18,10.415499 18.5845,11 19,11 h 3.585938 z"/>
  <path style="opacity:1;fill:#ffffff;stroke-width:0.85714287" d="M 19.414062,3.9999998 24,8.5858992 V 4.9999995 C 24,4.5844997 23.4155,3.9999998 22.999999,3.9999998 Z M 18,5.4140994 V 8.9999992 C 18,9.4154992 18.5845,10 19,10 h 3.585938 z"/>
 </g>
 <g id="pressed-center">
  <rect style="opacity:0.00100002;fill:#000000;fill-opacity:1;stroke:none;stroke-width:1.92783177;stroke-linecap:round;stroke-linejoin:round;stroke-miterlimit:4;stroke-dasharray:none;stroke-opacity:1" width="14" height="14" x="28" y="0"/>
  <circle style="opacity:1;fill:#689f38;fill-opacity:1;stroke:none;stroke-width:1.94492304;stroke-linecap:round;stroke-linejoin:round;stroke-miterlimit:4;stroke-dasharray:none;stroke-opacity:1" cx="35" cy="7" r="7"/>
  <path style="opacity:0.2;fill:#000000;stroke-width:0.85714287" d="M 33.414062,4.9999999 38,9.5858993 V 5.9999996 C 38,5.5844998 37.4155,4.9999999 36.999999,4.9999999 Z M 32,6.4140995 V 9.9999993 C 32,10.415499 32.5845,11 33,11 h 3.585938 z"/>
  <path style="opacity:1;fill:#ffffff;stroke-width:0.85714287" d="M 33.414062,3.9999999 38,8.5858993 V 4.9999996 C 38,4.5844998 37.4155,3.9999999 36.999999,3.9999999 Z M 32,5.4140995 V 8.9999993 C 32,9.4154993 32.5845,10 33,10 h 3.585938 z"/>
 </g>
</svg>
